<svg width="54" height="55" viewBox="0 0 54 55" fill="none" xmlns="http://www.w3.org/2000/svg">
<path fill-rule="evenodd" clip-rule="evenodd" d="M0 27.0562L7.90818 19.1316V7.92234H19.0941L27 0L34.9059 7.92234H46.0919V19.1317L54 27.0562L46.0919 34.9808V46.1857H34.9104L27 54.1125L19.0896 46.1857H7.90818V34.9809L0 27.0562ZM4.24241 27.0411L10.9112 20.3584V10.9177H20.3323L26.9998 4.23635L33.6672 10.9177H43.095V20.3651L49.7571 27.0411L43.095 33.7172V43.1685H33.6632L26.9998 49.8459L20.3363 43.1685H10.9112V33.7238L4.24241 27.0411Z" fill="url(#paint0_linear_779_7309)"/>
<path fill-rule="evenodd" clip-rule="evenodd" d="M29.8797 35.5986C30.0696 35.1103 30.2449 34.5775 30.403 34.0058C29.2805 33.5832 28.1073 33.0736 26.9109 32.4822C25.9791 32.9486 25.0617 33.3646 24.1717 33.7277C24.3177 34.2869 24.4798 34.8113 24.6559 35.2959C25.1212 35.4656 25.4534 35.9127 25.4534 36.4377C25.4534 36.5993 25.4219 36.7535 25.3648 36.8946C25.6314 37.3829 25.907 37.7764 26.1807 38.0741C26.6642 38.5999 27.0521 38.7372 27.3247 38.7372C27.5973 38.7372 27.9852 38.5999 28.4687 38.0741C28.9531 37.5473 29.4435 36.72 29.8797 35.5986ZM23.0679 34.1563C23.1933 34.6249 23.3302 35.0718 23.4775 35.4943C23.2039 35.7171 23.0291 36.0569 23.0291 36.4377C23.0291 37.1085 23.5718 37.6524 24.2413 37.6524C24.3062 37.6524 24.3699 37.6473 24.4321 37.6374C25.2573 39.0745 26.2529 39.914 27.3247 39.914C29.0492 39.914 30.5764 37.7408 31.5143 34.4014C35.6767 35.7956 38.9563 35.8826 39.7969 34.3617C40.6617 32.7971 38.7175 29.9424 35.1402 27.0634C35.529 26.7232 35.894 26.3849 36.2334 26.0504C36.3702 26.0911 36.515 26.1129 36.6649 26.1129C37.5018 26.1129 38.1802 25.4331 38.1802 24.5945C38.1802 24.3718 38.1323 24.1603 38.0464 23.9698C39.091 22.51 39.4697 21.2367 38.9817 20.3698C38.2066 18.9931 35.4259 18.9612 31.8073 20.039C30.9167 16.0478 29.2428 13.3594 27.3247 13.3594C25.3557 13.3594 23.6442 16.1923 22.7729 20.3592C22.448 20.255 22.1289 20.1591 21.8164 20.0716L21.8166 20.0417C21.8166 19.0354 21.0026 18.2196 19.9983 18.2196C19.2109 18.2196 18.5403 18.7213 18.2875 19.4231C16.5608 19.3193 15.3254 19.6667 14.8548 20.5183C14.0592 21.9576 15.6408 24.4887 18.684 27.126C15.1702 30.015 13.2766 32.8597 14.1483 34.4082C15.0439 35.9991 18.6177 35.7942 23.0679 34.1563ZM37.1754 23.1644C37.46 22.7537 37.6716 22.3779 37.8125 22.044C38.1028 21.3561 38.015 21.0515 37.9573 20.9489C37.8995 20.8463 37.6848 20.6135 36.947 20.5067C36.2293 20.4028 35.2206 20.4556 33.9595 20.7095C33.3581 20.8306 32.7145 20.9942 32.0375 21.1991C32.2501 22.4155 32.3936 23.7293 32.4551 25.1071C33.063 25.5101 33.6432 25.9185 34.1921 26.3286C34.5961 25.9811 34.9732 25.6365 35.3214 25.2972C35.2117 25.0871 35.1497 24.8481 35.1497 24.5945C35.1497 23.7559 35.8281 23.0761 36.6649 23.0761C36.844 23.0761 37.0159 23.1072 37.1754 23.1644ZM18.2676 20.6017C17.7305 20.5666 17.2696 20.5813 16.8904 20.6392C16.1535 20.7518 15.9407 20.9863 15.8837 21.0894C15.8267 21.1924 15.7413 21.4977 16.037 22.1834C16.3246 22.8504 16.898 23.6837 17.7744 24.6272C18.3017 25.195 18.9218 25.7845 19.6234 26.3823C20.4252 25.7705 21.2952 25.1615 22.2227 24.5673C22.2873 23.5068 22.4007 22.488 22.5568 21.5264C22.1667 21.3991 21.7861 21.2843 21.4164 21.1822C21.0832 21.5978 20.5717 21.8637 19.9983 21.8637C19.1891 21.8637 18.5034 21.334 18.2676 20.6017ZM23.9025 32.5658C24.4592 32.3352 25.028 32.0828 25.6057 31.809C25.4281 31.7136 25.2502 31.6165 25.0721 31.5176C24.5641 31.2357 24.0686 30.9477 23.5872 30.6553C23.6727 31.3206 23.7786 31.9591 23.9025 32.5658ZM28.2126 31.8026C29.0592 32.1987 29.8873 32.5498 30.686 32.8543C30.8742 31.9885 31.0253 31.0539 31.1318 30.0659C30.406 30.5374 29.6438 31.0004 28.8505 31.4488C28.6376 31.5692 28.4249 31.6871 28.2126 31.8026ZM31.256 28.5694C30.3312 29.2013 29.3327 29.8245 28.2732 30.4234C27.8155 30.6822 27.3597 30.9288 26.9076 31.1632C26.4881 30.9484 26.0656 30.7232 25.6413 30.4877C24.8725 30.061 24.1354 29.6214 23.4348 29.1746C23.371 28.3574 23.3371 27.5088 23.3371 26.6367C23.3371 26.1628 23.3471 25.6959 23.3665 25.2372C23.8481 24.9385 24.3453 24.6437 24.8568 24.3546C25.5354 23.971 26.2096 23.6139 26.8742 23.2842C27.577 23.6234 28.2911 23.9931 29.0104 24.3923C29.81 24.8361 30.5752 25.2939 31.3008 25.7591C31.3084 26.0487 31.3123 26.3414 31.3123 26.6367C31.3123 27.2954 31.293 27.9408 31.256 28.5694ZM32.3919 29.2131C32.2813 30.6588 32.0794 32.0203 31.8024 33.2563C32.8686 33.6171 33.8682 33.8868 34.7722 34.0614C36.0353 34.3053 37.0444 34.3503 37.7612 34.2408C38.4981 34.1282 38.711 33.8937 38.768 33.7906C38.825 33.6876 38.9104 33.3823 38.6147 32.6967C38.327 32.0296 37.7537 31.1963 36.8773 30.2528C36.1559 29.4762 35.261 28.6588 34.2212 27.835C33.6504 28.2956 33.0391 28.7567 32.3919 29.2131ZM33.2567 27.0999C33.0035 27.3004 32.742 27.5012 32.4726 27.7018C32.4835 27.3504 32.489 26.9952 32.489 26.6367L32.4889 26.5518C32.7514 26.734 33.0074 26.9169 33.2567 27.0999ZM30.6821 20.4008C30.4615 19.3897 30.1901 18.4728 29.8797 17.6748C29.4435 16.5534 28.9531 15.7261 28.4687 15.1993C27.9852 14.6735 27.5973 14.5361 27.3247 14.5361C27.0521 14.5361 26.6642 14.6735 26.1807 15.1993C25.6962 15.7261 25.2059 16.5534 24.7697 17.6748C24.4246 18.562 24.1278 19.5962 23.8952 20.7434C24.8519 21.0913 25.8484 21.5041 26.8671 21.9784C28.187 21.3462 29.4715 20.8177 30.6821 20.4008ZM28.2295 22.6433C29.1538 22.2278 30.0513 21.869 30.9069 21.5689C31.0529 22.4373 31.1632 23.3609 31.2315 24.3267C30.6979 23.9992 30.1466 23.6771 29.5796 23.3624C29.1278 23.1116 28.6773 22.8719 28.2295 22.6433ZM25.5117 22.6581C24.8889 22.3864 24.2787 22.1403 23.6858 21.9204C23.5925 22.5248 23.5163 23.1542 23.4592 23.8045C23.7287 23.6444 24.0022 23.4859 24.2795 23.3292C24.6916 23.0962 25.1027 22.8725 25.5117 22.6581ZM19.6058 27.8922C20.4283 28.549 21.3352 29.2064 22.3126 29.8495C22.4202 30.963 22.5825 32.0208 22.7917 33.0033C21.4809 33.4923 20.2569 33.8498 19.1705 34.0685C17.9094 34.3223 16.9006 34.3752 16.1829 34.2713C15.4452 34.1645 15.2305 33.9317 15.1727 33.8291C15.115 33.7265 15.0271 33.4219 15.3175 32.7339C15.5999 32.0647 16.1667 31.2269 17.0358 30.2765C17.7356 29.5113 18.6011 28.7057 19.6058 27.8922ZM20.5612 27.148C21.0685 26.7675 21.6043 26.3874 22.166 26.011C22.1623 26.2184 22.1604 26.427 22.1604 26.6367C22.1604 27.2194 22.175 27.7934 22.2033 28.3564C21.6239 27.9551 21.0754 27.551 20.5612 27.148ZM29.5196 27.1059C29.5196 28.4278 28.443 29.4994 27.115 29.4994C25.7869 29.4994 24.7103 28.4278 24.7103 27.1059C24.7103 25.784 25.7869 24.7124 27.115 24.7124C28.443 24.7124 29.5196 25.784 29.5196 27.1059Z" fill="#fff"/>
<defs>
<linearGradient id="paint0_linear_779_7309" x1="7" y1="8" x2="46" y2="46.5" gradientUnits="userSpaceOnUse">
<stop stop-color="#fff"/>
<stop offset="1" stop-color="#fff"/>
</linearGradient>
</defs>
</svg>
