<?xml version="1.0" encoding="UTF-8"?>
<svg id="Layer_2" data-name="Layer 2" xmlns="http://www.w3.org/2000/svg" viewBox="0 0 3628.6 1802.51">
  <defs>
    <style>
      .cls-1 {
        fill: #3a7a91;
        fill-rule: evenodd;
        opacity: .1;
      }
    </style>
  </defs>
  <g id="BACKGROUND">
    <g>
      <path class="cls-1" d="M2195.1,1289.69c-1.44,2.85-.57,8.93-2.37,10.69-5.71,5.71-16.88,19.27-25.08,23.89-10.34,6.1-23.26,5-23.26,22.48,0,5.71,5.37,14.62,5.37,18.54,0,.69-7.15,16.02-7.15,16.02-.72,0-7.14,5.72-7.14,7.15,0,5.37,0,11.04,4.26,14.27,.37,2.51-.7,4.28-.7,8.94,0,9.25,7.84,19.58,16.76,19.58,21.76,0,24.95-23.89,31.37-39.91,7.86-20.36,16.51-38.21,16.51-64.22,.69,0,1.21,1.07,6.51,1.79v-5.36c-5.3-9.27-2.95-32.44-15.08-33.87Z"/>
      <path class="cls-1" d="M2506.71,1092.47c0,5.01,3.89,9.99,8.89,9.99,6.77,0,11.4-8.19,11.4-14.62,0-11.41-10.32-15.69-15.32-24.26,0,10.7-4.97,18.55-4.97,28.89Z"/>
      <path class="cls-1" d="M2770.8,1216.59c0-3.57-3.97-8.55,1.33-9.98v-15.34c0-3.57-4.53-4.65-6.65-6.78-3.94-3.94-7.98-6.05-7.98-13.55-3.93,0-6.64-1.07-6.64-5.72l1.5-2.27c-.73-1.44-1.75-1.93-3.16-1.93h-2.84s.69-2.7,.69-3.05c0-5.37-6.05-7.79-11.4-9.58-9.99-3.2-13.9-8.16-20.69-14.92-3.56-3.58-6.04-8.02-11.4-9.79-1.43-.37-3.22-.17-3.9-1.97-2.87-5.7-5.38-13.71-13.22-13.71h-11.75c-2.87,0-3.57-10.6-7.14-10.6-.72,0-1.43,0-1.43,0v10.41c0,3.57,6.41,13.54,9.28,14.28,3.2,.7,6.6,0,8.01,3.2,2.15,4.27,3.12,6.41,5.27,10.7,2.49,4.99,10.66,3.56,13.15,11.75,.73,2.87,3.17,11.41,4.98,12.48,1.04,.74,5.33,1.09,5.68,1.8,.72,1.07,0,3.2,1.07,3.2s5.35,7.14,6.05,8.91c3.95,8.22,6.78,14.63,13.92,21.77,6.4,6.41,12.85,9.26,19.61,16.04,.36,.34,6.53,9.62,8.31,9.62,2.49,0,9.38-1.05,9.38-4.97Z"/>
      <path class="cls-1" d="M2804.47,1153.83c0,1.76,3.57,14.6,5.34,14.97,1.8,.35,3.91,.35,4.63,2.14,0,.37-.35,1.43-.35,1.78,4.65,7.14-1.07,19.61,12.14,19.61,2.85,0,4.62-2.14,7.49-1.79,.34,1.44,0,5.36,.69,5.36,1.07,0,1.8,1.76,2.84,1.76,4.3,0,6.1-3.91,8.92-3.91,6.06,0,9.99,4.28,15.7,5.72,0,2.14,1.07,4.97,4.64,4.97,4.64,0,5.34-4.27,11.05-5.69,0-3.93,4.28-9.25,4.28-12.14,0-1.76-1.78-2.49-1.78-4.98,0-2.15,3.56-7.5,7.84-8.21,0-6.04,2.86-8.2,4.63-16.04l1.8-3.57c1.04-.37,2.5-.71,3.55-.71,3.91,0,6.77,1.78,7.84-3.57-6.4,0-16.03-17.84-16.03-23.2,0-1.05,1.41-2.14,2.49-2.5-.36-1.05-1.08-2.13-1.42-3.2,0,0,9.64-3.94,10.34-4.99-.7,0-1.43-1.06-1.43-1.79,0-3.21,7.84-1.06,7.84-4.31,0-7.1-14.98-2.82-14.98-10.32,0-5.34,.72-8.9-5.34-8.9-5.71,0-13.56,13.55-16.41,19.21-1.42,2.88-9.62,1.1-12.83,4.31-.73,.73-1.07,2.51-2.17,2.85-1.74,.72-1.4,1.44-3.56,2.51,0,0-3.9,2.87-2.48,4.29-2.85,2.83-2.85,6.42-8.21,7.45-3.92,.74-7.49,.74-9.99,3.22-4.98,5-3.56,16.07-14.62,16.07-4.99,0-12.48-2.51-12.48,3.56Z"/>
      <path class="cls-1" d="M2929.99,1158.09c6.04,0,8.57-1.4,13.56-1.4,4.62,0,7.85,2.47,12.48,2.47,7.14,0,9.62-5.92,10.7-11.29,1.07,0,1.43-2.74,1.77-2.74h-2.13c-4.29,5.3-9.28,5.3-11.43,5.3h-2.84l-24.97-2.94c-9.26,0-13.55,12.46-13.55,20.99,0,2.17-2.84,4.25-3.2,5.71-2.5,8.18-6.97,11.59-6.97,19.41,0,4.28,6.55,4.45,6.55,4.81v17.1c0,2.17,3.42,4.65,6.24,4.65,3.95,0,5.65-12.49,5.65-14.25,0-4.66-3.06-7.15-3.06-11.78,0-2.52,2.95-4.28,5.41-4.28,1.07,0,1.83,.36,2.88,0l-1.54,7.48c0,4.63,5.61,7.65,5.61,12.27v4.44h4.85c0-10.6,7.88-4.78,7.88-8.71-1.44-.36-4.99-4.9-4.99-7.04,0-.71,1.08-1.71,1.41-2.43-2.11-1.09-7.87-14.08-7.87-15.15,9.97,0,9.32-7.99,19.93-10.49v-2.84c0-.39-22.05,5.34-22.43,6.39l.21-1.41c-1.44,1.77-2.04,3.56-4.21,3.56-5.34,0-7.61-6.78-7.61-12.12,0-7.12,5.57-5.73,11.64-5.73Z"/>
      <path class="cls-1" d="M2861.52,1248.31c4.28,0,3.93,2.52,7.48,2.52,.73,0,3.22-2.52,3.95-3.92-2.51-1.07-2.51-2.15-5.73-3.23-3.21-1.08-6.06,1.81-8.55-.71-.71-.69-.71-3.2-2.88-3.2-6.4,0-11.04,.61-14.97-3.32,.72,.34,12.86-1.19,13.23-1.19h-2.87l-10.7,.1c-6.43,0-8.93-7.05-16.06-7.05-4.28,0-5.34,5-10.71,5-11.75,0-16.39-11.57-27.08-11.57-2.16,0-3.57,2.07-5.71,2.07-1.07,0-1.79-1.49-2.85-1.49-2.14,0-8.56,6.41-8.92,7.47,5.34,0,8.21,4.27,11.77,7.86,3.55,3.55,8.91,0,14.26,1.78,7.13,2.12,12.85,2.47,19.62,2.47,3.57,0,4.64,4.65,8.92,4.65,13.9,0,26.03,.69,37.8,5.34-.36-1.06-1.09-3.58,0-3.58Z"/>
      <path class="cls-1" d="M2936.42,1251.15c4.62,0,7.84-1.6,10.33-6.23-3.21,1.4-4.99,4.02-10.33,4.02s-7.84-2.27-14.27-2.27c-2.49,0-6.43-1.15-6.43,1.7,0,3.92,5.36,2.77,7.84,2.77h12.86Z"/>
      <path class="cls-1" d="M2897.9,1245.85s-.35,2.51-.35,3.56c-1.79-.71-3.57-1.08-6.78-1.08s-6.06-.2-6.06,3.74c0,1.44,4.26,2.58,7.12,2.58,3.56,0,5.01-2.82,8.58-4.25l2.84,.74h6.72v-5.3h-12.07Z"/>
      <path class="cls-1" d="M2918.23,1256.45h-3.55c-2.51,0-6.79-.32-6.79,2.56,0,3.55,5.7,3.66,9.27,3.66,0,1.05,.35,4.39,2.11,4.39h1.46c1.1,0,2.83-1.37,2.83-2.45,0-4.27-5.33-8.15-5.33-8.15Z"/>
      <path class="cls-1" d="M2879.71,1246.9h-3.23c0,1.07,0,2.49,0,3.56,0,1.07,1.8,2.51,2.88,2.51,1.75,0,3.2-1.44,3.57-3.58-1.44-.7-1.44-2.49-3.22-2.49Z"/>
      <path class="cls-1" d="M2967.8,1257.95c5.71,0,17.49-2.86,21.02-8.21-3.19-2.14-18.88-.69-22.45,2.87-.72,.7-.72,2.84-1.78,3.2-5.35,1.75-12.1,1.76-12.1,9.63,0,1.43,1.06,3.2,2.46,3.2,3.93,0,10-4.28,11.78-6.04,1.07-1.1-.72-4.65,1.07-4.65Z"/>
      <path class="cls-1" d="M3066.23,1222.28c0-2.48-.72-1.05-1.44-3.9-2.49,.33-2.13,3.55-2.13,6.07,0,2.09-3.57,2.48-3.57,6.05,0,1.07,1.04,2.85,2.13,2.85,2.84,0,2.15-3.93,2.15-7.51,1.8,0,2.86-1.4,2.86-3.56Z"/>
      <path class="cls-1" d="M2978.16,1195.18c0,2.86,4.24,6.78,6.4,6.78,1.06,0,3.56-3.92,3.56-4.63,0-3.56-9.96-6.42-9.96-2.15Z"/>
      <path class="cls-1" d="M2996.69,1196.35s4.99,1.78,6.4,1.78h8.2c5.01,0,7.49,2.8,12.5,2.8,.72,0,2.13-.38,2.13-1.07,0-2.86-3.92-3.76-4.27-6.63l-1.08,.68c-2.14,0-4.61-1.08-5.33-1.08h-16.05c-.73,0-2.5,1.74-2.5,3.52Z"/>
      <path class="cls-1" d="M2995.27,1138.48c-2.89,1.44-5.93,4.29-5.93,7.14,0,4.65,.14,6.04,.14,9.97v4.65c0,2.13,3.36,6.76,6.93,6.76-1.78-2.48-1.63-3.9-1.63-6.03v-2.52s7.19-.37,8.59-.71c-.32-2.86-2.64-3.56-2.64-5.36,0-2.12,3.67-2.49,3.67-4.63-6.06-1.41-8.45-4.26-9.14-9.27Z"/>
      <path class="cls-1" d="M3207.45,1219.34c.9,5.3,5.78,3.28,8.95,5.41,.17,.16,.38,.1,.64,.3,.26,.23,.54,.3,.76,.58l-.62-.68c1.56,1.12,4.23,2.36,5.25,2.36,7.48,0,10.69-3.93,17.12-5.36,0-6.43,7.49-5,7.49-12.49,0-2.14-1.06-5.35-3.22-5.35-4.97,0-2.84,7.83-7.84,10.33-3.22,1.43-8.57,1.55-13.91,3.35,0,0-3.23,1.55-3.94,1.55h-10.67Z"/>
      <path class="cls-1" d="M3189.62,1221.56c-8.58-4.25-8.21-13.89-19.64-17.46-1.75-.36-4.63-.7-4.63-3.57-4.26,0-7.92-4.99-12.22-4.99-7.92,0-15.19-3.66-25.8-7.48v-.37s1.09-.13,.86-.19c-.37-.29-.03-.59-.32-.88l1.19,2.33c-1.77-.5-4.29-1.42-5.77-1.42h-9.65c-2.11-10.6-4.99-6.88-9.27-8.3-1.07-.36-3.91-.75-4.27-2.55-4.28,.71-8.55,6.76-11.77,7.82-4.98,1.45-5.7,1.62-8.54,4.45-.71,.74-3.93,5.96-6.42,5.96-2.16,0-8.35-5.73-8.35-7.18-3.22,0-6.6-1.47-6.6-3.25v-12.83c-10.6-1.44-9.84-7.14-15.88-7.14-6.42,0-8.31,6.07-12.57,6.07-2.14,0-4.7,1.07-4.7,3.18,0,5.01,8.72,2.87,11.21,7.86,.37,1.05,1.17,2.86,2.24,3.22,1.78,.35,3.24,2.6,5.02,2.6,3.91,0,6.45,.07,10.38,.07h2.51c-2.51,0-13.22,2.05-18.2,4.53,.71,2.85,4.62,.7,6.42,3.53,1.77,2.85,0,3.92,1.77,7.46,.36,1.07-1.36,.88-.29,.88,2.86,0,1.51-3.76,1.51-6.62v3.21c10.6-1.78,11.7,7.5,17.05,7.5,5.69,0,17.27,1.78,21.18,3.55,3.57,1.79,14.54,5.73,15.93,9.98,1.81,5.36,.14,10.35,5.13,15.35-2.13,1.06-8.68,2.33-8.68,6.62,0,2.85,3.45,2.31,5.94,2.31h7.51s3.91-3.94,5.34-3.94c9.28,0,11.76,9.25,21.03,9.25h13.56s3.21-1.59,1.79-6.24c4.99-2.49,4.28-7.73,13.19-7.73,11.78,0,18.2,10.55,25.32,17.7,.73,.73,3.57,1.62,3.57,3.07,0,3.91,8.2,9.12,13.54,9.12h9.29c.72,0,6.07,5.3,6.76,5.3h2.15s2.49-4.69,4.64-6.12c-1.07-.35-6.43,.15-7.12-1.65-.72-1.42-1.45-3.65-3.61-4.37-1.4-.37-3.53,1-4.24-.77-.74-1.45-1.79-3.96-2.86-3.96-2.49,0-6.77-1.79-7.84-3.57-2.86-4.29-2.16-6.8-5.71-10.36-.7-.71-6.76-6.77-6.76-8.56,0-3.22,6.76-1.76,6.76-5.71,0-7.84-7.47-3.93-11.05-5.72Z"/>
      <path class="cls-1" d="M3249.18,1198.4c-3.93-3.94-7.15-8.2-13.9-10.34,1.06,2.84,3.56,2.48,6.42,4.27,4.61,2.84,3.91,6.79,8.54,8.91-.7,3.56-.7,6.06,3.56,6.79,.71,.69,1.44,0,2.15,0-.35-.73,0-1.77,0-2.5,0-5-3.93-4.29-6.77-7.13Z"/>
      <path class="cls-1" d="M3271.55,1217.31c-.71,3.58-1.08,7.14,4.22,7.84v2.85c0,1.07,1.86,2.5,2.91,2.5s2.5-1.79,2.5-2.85c0-1.1-7.49-8.93-9.63-10.33Z"/>
      <path class="cls-1" d="M3341.18,1265.07c-.36,2.17,2.13,7.5,5.71,7.5-.36-.71,0-1.41,0-2.13,0-2.86-2.85-3.56-5.71-5.37Z"/>
      <path class="cls-1" d="M3325.48,1259.4c0,4.26,5.7,5.68,10,5.68,.34,0,1.42-.7,1.78-.7-2.5-3.54-6.07-4.97-11.77-4.97Z"/>
      <path class="cls-1" d="M3327.28,1245.48c.35,2.83,6.77,11.39,10.34,11.39-1.8-5.34-5.36-8.56-10.34-11.39Z"/>
      <path class="cls-1" d="M3306.92,1235.54l-.69-.29h-.71c0,5.3,8.21,8.15,11.05,8.15,1.06,0,2.13-.36,2.86-.7-2.15-3.22-9.27-5.34-12.52-7.15Z"/>
      <path class="cls-1" d="M3291.23,1229.08c-.05,.34-1.43,.34-1.79,.34l5.38,3.57h3.21c-1.8-2.69-3.86-2.41-6.8-3.91Z"/>
      <path class="cls-1" d="M3289.44,1228c.64,.45,1.22,.79,1.79,1.08,0-.01,.02-.01,.02-.02l-1.8-1.07Z"/>
      <path class="cls-1" d="M3186.41,1601.05c-.34,0-19.62-5.3-19.62,0,0,10.6,11.78,35.43,22.48,35.43,7.14,0,16.75-18.05,16.75-25.91,0-4.27-2.84-7.59-3.94-11.89-4.97,1.42-11.04,2.37-15.67,2.37Z"/>
      <path class="cls-1" d="M3204.23,1597.09c.35-1.78,1.07-2.48,1.07-6.04-1.07,.36-2.85,.36-4.62,0,0,2.85,.35,4.97,3.55,6.04Z"/>
      <path class="cls-1" d="M3084.77,1544.67c3.21,3.22,8.55,2.5,12.5,0-5.02-2.5-5.71-3.21-12.5,0Z"/>
      <path class="cls-1" d="M3028.77,1282.96h8.43v-5.04c-5.3-.34-10.27,.22-16.69,1.65,1.42,1.42,3.99,3.39,8.25,3.39Z"/>
      <path class="cls-1" d="M3249.18,1422.01c-6.77-6.79-20.34-12.86-20.34-27.11-4.63,0-10.34,0-11.76-4.64-1.45-5.01-2.13-11.78-6.42-16.06-6.08-6.06-21.4-9.26-24.26-17.83-2.84-8.89-5.72-13.52-8.92-23.17-1.79-5.7-1.79-17.12-6.06-19.97-1.44-.71-8.22-2.87-11.78-3.9-3.93-2.88-2.12-9.31-3.57-14.29-2.13-6.81-6.9-13.19-7.99-22.83-6.06,3.19-4.85,7.85-10.15,12.14v32.1c0,8.17-3.75,29.21-14.81,29.21-6.77,0-8.47-7.84-13.5-9.62-8.87-3.56-14.2-5.35-23.84-8.92-1.41-.34-1.4-5.72-3.54-7.11-2.13-1.43-7.14-.73-7.14-3.56l4.29-17.83c2.86-2.16,8.2-2.51,8.2-7.13,0-2.86-4.99-6.44-7.13-6.44-3.92,0-5.35,2.87-9.98,2.87-12.84,0-19.97-5-32.1-10,.71,3.94,4.27,5,6.42,8.21-1.07,.34-3.92,2.5-6.42,2.5-6.06,0-20.33,3.21-20.33,8.18s-5.36,7.51-5.36,12.52c0,3.19,1.07,5.67-1.07,8.87-.72-.34-3.56-2.83-5.34-2.83-3.23,0-6.07,1.41-7.86,3.92-.71-6.41-4.29-13.54-10.69-13.54-7.5,0-9.28,7.13-18.93,7.13-.69,8.19-7.84,9.64-7.84,19.61-2.86,0-4.62-1.43-7.47-2.84-1.81,3.92,0,9.25-3.94,11.75-1.44-2.51-5.12-3.91-6.92-7.12-3.56,1.77-6.2,5.33-6.2,8.9,0,2.15,0,3.92,0,6.06,0,12.14-27.66,22.11-40.5,24.25-6.77,1.08-18.85,1.79-23.12,6.08-3.9,3.91-11.72,12.81-18.47,13.55,0-1.08,.78-2.5,.41-3.58-1.46,.72-3.13,1.44-3.13,4.3,0,9.26,0,9.96,0,20.68,0,8.9,3.71,13.18,3.71,18.55,0,1.77,.74,3.21-.3,4.61-1.08-1.05-2.68-2.84-3.39-4.61-1.05,1.77-1.49,3.21-2.21,4.61-1.76,5.36,5.33,7.14,7.1,12.51,4.64,13.89,5.68,18.89,9.97,34.57,1.79,6.42,7.11,12.12,7.11,22.47,0,8.2-8.18,10.72-8.18,16.04,0,5.02,17.11,12.5,23.16,12.5,16.05,0,21.4-11.77,33.89-11.77,4.25,0,4.25-2.86,9.98,0,7.83,0,13.92-1.8,21.4-2.5,2.86-18.19,25.31-11.77,43.49-17.84,7.87-2.49,10.34-8.18,23.18-8.18,11.78,0,32.82,3.54,38.53,10.68,2.86,3.94,10.71,21.42,13.2,21.42,0,0-1.45,6.41,2.84,6.41,7.5,0,16.42-18.57,22.83-24.99,.35,5.36-1.43,23.91-10.35,25.69,0,1.76,1.79,3.58,3.59,3.58,5.34,0,5.69-6.44,8.9-7.88,0-1.08,.73-2.48,.73-3.55,1.41,1.43,3.54,3.28,3.54,7.59,0,3.55-1.43,2.99-2.49,8.29h4.28c2.85,0,4.64-1.52,7.13-2.95,0,.34,.35,1.57,.35,1.57,.39,4.63,5.02,8.79,5.02,14.15,0,14.63,22.8,23.82,36.72,23.82,8.92,0,6.09-7.14,14.27-7.88,.34,2.17,14.61,10.33,17.46,10.69,2.86-17.11,35.65-9.65,35.65-26.02v.71c0-12.51,7.87-23.55,10.72-32.11,3.55-11.39,11.07-14.97,17.5-24.94,1.77-2.88,3.59-4.28,3.59-7.13v-10c5.3-3.2,4.43-14.27,4.43-22.09,0-10.72-4.03-30-9.72-37.46l-.09-1.07Z"/>
      <path class="cls-1" d="M3464.23,1607.43c-1.1,0-2.15-.35-2.52-1.43-1.78,.71-3.56,3.21-6.08,3.21-2.12,0-1.76-2.5-1.76-4.98-1.08,0-2.5-1.09-2.5-3.57-3.23,1.43-8.55,6.42-8.55,11.79,0,.68-.34,1.41-.34,2.12-2.86,.36-5.03,1.08-6.42,3.94-.38,1.06-.38,3.55-.38,3.55,0,0-4.99,7.85-6.76,8.57-6.07,2.86-11.41,11.76-19.97,11.76-2.52,0-4.29,2.15-5.71,4.64-3.57,5.32-14.29,10.34-14.29,19.6,0,.72,1.08,1.43,1.79,1.43,0,1.78,13.92,7.14,16.06,7.14s6.41,1.78,7.85,1.78c3.93,0,10.32-5.33,13.53-8.55,0,0,9.98-20.67,11.05-24.96,2.86,0,11.42-1.8,13.21-1.8,.71-4.27-1.07-5.69,0-11.04,5.71,0,12.83-13.2,13.91-17.83-1.43-.7-2.12-2.5-2.12-5.36Z"/>
      <path class="cls-1" d="M3507.37,1564.27c-5.71,0-5.35,6.29-12.13,6.29-8.57,0-13.2-6.62-13.2-11.92h-7.48c-1.81,0-6.07-10.55-6.07-12.31,0-1.1,1.05-1.91,1.4-2.98-2.11-1.05-2.12-3.78-4.27-5.93-3.55-3.56-9.63-4.04-13.54-10.09,2.14,8.56,7.13,20.27,15.35,21.7-.38,1.05-.25,2.45-.25,3.54,0,2.85,4.74,3.88,4.74,6.74v-.18c0,1.85,.6,4.74,.6,6.96,0,5.34-1.13,10.34-4.69,13.91-1.8,1.77-5.22,2.14-5.22,5.69,0,6.43,13.1,3.59,13.1,10.71,0,4.29-4.32,6.07-4.32,10.34,0,2.88,2.09,4.64,5.31,4.64,7.49,0,9.61-7.13,13.2-12.5,.71-1.03,4.98-4.62,4.98-7.12,0-1.06-1.44-2.48-1.44-3.55,0-2.86,3.57-3.93,7.13-4.63,.36,0,.7-1.09,1.08-1.09l1.44,1.79c3.57-5.34,2.11-12.85,7.13-17.82-.72-1.08-1.8-2.17-2.86-2.17Z"/>
      <path class="cls-1" d="M3504.03,1347.48v-4.3c0-.34-1.02-1.41-2.06-3.2-3.22,1.09-7.11,2.13-7.11,6.78,0,1.44,2.98,2.15,5.85,2.15s3.32,.7,3.32-1.43Z"/>
      <path class="cls-1" d="M3509.01,1334.28c0,1.06,.44,3.21,1.51,3.21,3.57,0,8.3-3.55,8.3-4.64,0-1.1,0-2.15,0-3.2,0,0-9.82,.37-9.82,4.64Z"/>
      <path class="cls-1" d="M2972.09,1061.61c-.31,.91-.08,5.25-1.1,7.42-1.01,1.83-6.82,.5-6.91,4.84-1.97,.28-2.96,1.82-3.02,3.99-.64-.02-1.28-.04-1.94-.04-2.26-.04-1.53-4.98-5.75-5.06-5.87-.11-4.35,6.76-11.18,6.64-.73,3.08-2.05,4.91-2.08,8.02-.04,.92,1.25,2.19,1.21,3.12,0,1.25-2.71,7.09-.12,7.12,3.57,.07,3.11-10.15,6.43-13.21,0,0,2.23,2.52,3.2,2.84,.33-.29,1.02-1.54,1.02-1.54,.63,.66,1.25,1.58,3.2,1.62-.31-.94,.04-1.88,.06-2.8l4.54,.11c.33,.92,.94,2.16,1.27,3.12-1.01,.6-1.66,1.52-1.69,3.69-.11,5.89,3.72,10.92,8.26,11.01,.97,.01,2.26,.32,3.25-.24,0,.91,.62,2.5,1.59,2.5,2.27,.04,3.64-1.82,3.66-4.27,.05-3.43-3.81-4.42-3.77-6.59,.01-1.86,1.64-2.47,2.98-4.3,.65,.95,1.59,1.58,1.91,2.51l-.16-.66c.57,1.78,2.82,6.94,3.94,7.25,.12-5.27,4.04-7.06,4.12-10.49,.02-2.76-5.19-21.2-7.73-23.7-1.28-1.27-2.88-2.85-5.17-2.88Z"/>
      <path class="cls-1" d="M2896.09,1073.93l2.26,.03c3.94-2.42,10.2-6.34,11.63-13.44,2.59,.03,4.89-.53,5.6-3.32,1.62,.03,1.94-.9,3.25-1.82-1.27-1.26-2.88-1.9-2.84-5-.97,.93-1.01,2.46-1.69,3.99-3.7,6.75-14.81,10.3-18.22,19.56Z"/>
      <path class="cls-1" d="M2914.14,1008.46c-.04,1.86,5.75,5.66,7.06,5.7,.96,.02,1.66-1.22,2.31-2.13l1.94,.02-.04,3.1c-.65,.61-1.99,1.5-2.02,3.39-.02,1.55,2.55,4.38,4.8,4.44,1.97,.04,3.3-1.81,5.24-1.8,4.57,.09,4.77,6.91,9.31,6.98-.93-2.49-1.88-3.76-.22-5.87,1.91,2.8,9.66,5.72,11.56,9.5,.31,.93,.62,2.5,1.59,2.5,.64,0,1.29-1.21,1.33-1.82,0-.94,0-1.56,.03-2.51-2.25-.02-4.22-1.31-4.16-3.8-.66,.32-2.28,.58-2.28-.03,.03-1.56,1.64-1.83,2.01-3.67-.63-.04-1.28-.66-1.93-.67-1.3-.01-1.65,2.14-2.96,2.1-1.96-.01-2.82-7.16-6.71-7.25-1.95-.03-3.62,1.19-3.62,2.41-.03,.33-.03,1.28-.05,1.56-3.54-1.6-7.96-9.43-7.85-14.08,.09-6.52,5.95-7.04,6.08-13.89,.09-5.26-4.08-9.98-4.01-14.02,.03-.63-.6-1.56-.6-2.18,.02-.32-.61-1.27-.61-1.56-1.34,.58-2.34,3.06-4.3,3.02-2.91-.05-2.18-5.6-5.75-5.68-2.58-.04-3.3,3.04-3.35,6.14-.09,3.73,1.51,6.25,1.43,9.97-.03,2.79-.75,7.12-2.07,9.26-3.25-.66-2.07,5.87-2.16,10.85Z"/>
      <path class="cls-1" d="M2968.64,1036.4c-2.59-.05-4.54-1.32-7.14-1.37-.96,0-1.95,.91-2.95,1.2,.62,2.5,7.76,4.79,7.66,9.13-.02,.64-1.02,1.86-1.66,1.86-.32,0-2.61-.05-4.23-.1l-.04,1.88c.32,.91,2.54,4.08,4.82,4.12l-.03,1.85c-1.34,1.84-.74,4.34,1.56,4.38,.96,0,1.94,.03,2.91,.03l.04-1.86c-1.28-.62-2.54-3.75-2.8-6.25l4.86,.07c.37-1.23,1-2.14,1.38-3.99-.33,0-2.55-2.86-2.55-2.86,0,0,.37-3.08,.09-4.94-.65-.03-1.29-.03-1.96-.05,.34-.91,.05-2.17,.05-3.09Z"/>
      <path class="cls-1" d="M2940.69,1042.51c-.42-.47-.97-1.03-1.42-1.03-.63,0-1.97,.9-1.97,1.52-.06,2.8,1.14,8.7,1.05,13.99,2.93-1.83,10.49-4.5,10.58-9.75,.04-2.34-5.67-3.48-8.24-4.72Z"/>
      <path class="cls-1" d="M2950.49,1051.58c-1.64,.29-3.4,8.03-3.44,8.96-.97-.01-2.93,.88-2.94,1.82-.04,2.17,5.74,8.16,7.04,8.19,.63,0,1.94-.91,1.96-1.52,.03-1.86-1.62-1.26-1.55-4.08,.06-3.71,3.68-6.11,3.75-9.85,.05-1.84-1.55-4.38-4.82-3.52Z"/>
      <path class="cls-1" d="M2953.53,1065.6h1.62c.09-5.3,4.34-7.05,4.43-12.64-.96,0-1.95,.44-2.92,.44-.08,5.56-2.1,6.89-3.13,12.19Z"/>
      <path class="cls-1" d="M2963.67,1059.89c-1,1.23-2.61,.57-4.21-.08-1.02,1.85-2.99,2.76-3.01,4.6-.03,.63,1.27,1.58,1.93,1.58,2.91,.09,5.23-2.67,5.29-6.1Z"/>
      <path class="cls-1" d="M2956.82,1042.71c.07-4.02-4.13-5.04-5.08-7.84l-2.9-.06c-.04,1.25-.04,2.47-.08,4.67,1.62,.02,2.91-.25,4.53,.06-.03,1.56,3.51,4.74,3.54,3.17Z"/>
      <path class="cls-1" d="M2930.89,1037c1.3,0,2.97-3.67,2.37-6.18-.9-3.73-4.49-3.19-8.35-5.73l-3.23-.05s7.27,11.92,9.22,11.97Z"/>
      <path class="cls-1" d="M2934.3,1027.13c.65,.62,2.6,.35,3.26,.03-.63-.6-2.58-.35-3.26-.03Z"/>
      <path class="cls-1" d="M2929.65,898.1c-5,0-12.49,13.92-12.49,21.4,0,5.36-1.08,9.99,5.35,9.99,8.19,0,16.05-31.4,7.14-31.4Z"/>
      <path class="cls-1" d="M2824.43,958.74c0-2.12-3.43-5.34-5.22-5.34-4.63,0-15.27,8.92-20.57,8.92v5.34c0,4.63,3.44,7.13,8.82,7.13s16.98-11.05,16.98-16.05Z"/>
      <path class="cls-1" d="M2773.8,1184.86c.35,1.08,1.78,5.41,2.5,5.41,1.42,0,2.49,2.57,4.64,2.57,.71,0,1.78,0,2.49,0-.35,0-.35-2.9-.35-4.01-4.99,0-7.12-6.98-8.92-12.32-2.5,.35-7.49,2.73-7.49,4.52,0,2.86,5.71,.97,7.14,3.83Z"/>
      <path class="cls-1" d="M2795.19,1194.12c2.15,0,3.58-2.14,3.94-4.28-1.09-.34-2.16-1.78-3.26-1.78h-3.53c-.38,0,0,1.44,0,1.78,0,1.75,.7,4.28,2.84,4.28Z"/>
      <path class="cls-1" d="M2705.21,1173.79h-4.93s0-.36,0-.02c0,2.51,5.69,8.22,7.44,8.58,.3-3.53-2.51-5.65-2.51-8.27v-.3Z"/>
      <path class="cls-1" d="M2690.69,1150.62l-1.75,.7h.33c.36,2.14,4.99,7.84,6.43,7.84,2.84,0-2.86-7.15-5-8.54Z"/>
      <path class="cls-1" d="M3014.51,811.47c0,1.79,1.79,3.92,3.57,3.92,1.07,0,2.48-1.42,4.27-1.42-.71-1.08,0-2.15,0-3.23,.36,1.79,.71,3.94,2.85,4.64l-1.41,4.99s-5.51,4.98-5.51,5.72c0,1.42,3.02,5.68,3.02,5.68v-2.12c0,1.07,1.95,3.2,3.02,3.2,5.01,0,8.85-11.05,9.89-17.47,1.1,.72,2.64,0,3.72,0-.7-1.07,.24-2.5,.24-3.56l-3.11-2.87c-1.05,0-.28-2.5-.28-3.57-4.26,0-6.38-2.84-9.25-2.84-1.05,0-11.02,6.78-11.02,8.92Z"/>
      <path class="cls-1" d="M3047.34,814.32c4.63,0,3.94-5.71,7.14-8.93,1.05,.37,3.93,2.52,3.93,2.52,5.3,0,10.6-12.49,0-12.49,0,0-4.64,6.07-10.71,4.26,0,.37-6.08,5.37-6.08,5.37,0,1.77,1.06,2.49,3.21,3.9-.35,1.79,.72,5.36,2.51,5.36Z"/>
      <path class="cls-1" d="M3085.83,769.55c-3.2,0-5.34,9.77-11.42,9.77h-22.11c-9.27,0-12.48,10.21-19.96,15.19-1.41,.69-4.64,2.06-4.64,3.14,0,1.4,2.5,1.72,4.98,1.72,7.49,0,13.91-2.68,18.56-4.81,2.85-1.45,5.01,.42,7.85-1,1.05-.37,1.41-2.8,3.57-2.8,4.25,0,4.77,2.14,9.07,3.21,0,1.44-2.72,3.95-2.72,6.08,0,1.08,0,2.86,0,2.86,5.3,0,3.76,2.85,6.62,3.55,1.81-3.55,6.89-9.26,9.38-9.26,1.09,0,2.91,0,3.98-.36-.34,0-3.37-4.29-3.37-5.71,0-1.07,1.19-2.86,2.24-2.86,3.23,0,2.92,6.01,10.4,6.01,2.86,0,5.03,.94,7.18-4.36h3.56c0,5.3,1.07,1.85,1.79,1.85,1.45-4.98,4.65-5.3,9.63-8.51-.35,2.49-1.78,2.87-.35,5.7,4.27-1.39,4.27-4.96,8.56-7.12-.72-2.12-1.78-3.56-1.78-6.76,0-4.63,3.92-6.77,3.92-9.99,0-3.92-.34-14.97,3.21-16.03,1.09-.36,3.96,.36,3.96-.7,0-.73,0-1.44,0-2.14,0-4.63,4.24-5.35,4.24-11.08,0-4.99-5.32-7.46-5.32-12.48,0-2.48,.19-4.62-.91-7.11-.36-1.08-1.86-1.8-4.36-1.8-1.08,0-.41,3.23,.67,3.23,.35,0,.7,.33,1.03,.33-4.27,3.57-3.91-1.06-4.63-1.06-4.65,0-8.22,8.92-8.22,13.18,0,1.81,1.45,1.81,1.45,4.29,0,11.43-12.17,26.39-19.64,28.9-4.27,1.44-4.97,4.98-10.34,4.98-.69,0-1.78-1.04-1.78-1.78,0-1.44,.71-3.46,1.78-4.55-1.06,.35-5.7,8.28-6.06,8.28Z"/>
      <path class="cls-1" d="M3122.03,691.29c0,2.49-4.1,4.99-4.1,8.92,0,1.42,4.1,2.14,4.1,3.56,0,.7,0,6.63,0,6.63h1.59c2.88,0,5.74-.65,8.59-4.56-1.44-1.43-6.77-1.04-6.77-4.61,0-6.05,6.05-2.29,10.68-2.29,0-1.09,1.42-2.41,2.49-2.76,6.09,3.93,9.64,4.69,15.34,8.23,2.86-4.26,5.34-12.43,12.84-12.43,5.36,0,7.86-1.07,11.07-3.19-1.44-.37-4.31-2.5-4.31-4.64,0-1.79,1.45-2.48,2.15-4.29-2.15-1.39-4.63,.74-7.46,.74-13.92,0-18.2-11.42-27.84-17.86-.7,1.08-2.14,2.16-2.14,4.66,0,1.41,1.79,2.12,1.79,3.57,0,4.63-2.51,18.53-8.55,18.53-1.08,0-2.51,.36-3.58,0l-1.34,.71c-1.08-.71-4.55-1.07-4.55-1.78v2.85Z"/>
      <path class="cls-1" d="M3177.49,680.59c-.73,1.08-1.08,3.21,0,3.21,3.2,0,7.5-5.33,8.92-7.51l-1.19-.94c-2.82,.31-6.38,3.22-7.72,5.24Z"/>
      <path class="cls-1" d="M3184.61,674.88l.6,.47c.16-.02,.33-.11,.48-.11l-1.08-.36Z"/>
      <path class="cls-1" d="M3205.17,662.69c-4.27,0-8.92,7.19-8.92,7.19,0,.35,0,1.8,0,1.8,5.3,0,5.3-7.15,10.6-7.15v-1.84s.48,0-1.68,0Z"/>
      <path class="cls-1" d="M3221.32,658.84c2.89,0,5.74-5.01,6.09-7.15-.7,0-4.99,0-5.69,2.14-.39,1.06,.7,2.88-.39,2.88-.69,0-.69,2.13,0,2.13Z"/>
      <path class="cls-1" d="M3153.19,560.89c-1.44-4.63-3.86-9.54-3.86-14.84-.72,0-.79,0-.79,0,0,0,0,.81,0,4.37,0,1.77-2.28,2.48-2.28,4.63-5.35,1.06-7.94,10.69-7.94,18.19,0,5.34,4.93,7.48,4.93,12.83,0,8.9,0,11.77,0,21.05,0,4.29-1.79,5.69-1.79,11.05,0,4.27,2.7,4.97,2.7,9.97,0,5.35-.91,9.61-.91,16.06,0,1.78,0,10.33,0,10.33,5.3,0,3.23-7.77,7.52-7.77h3.56c.35,0,2.11,3.89,3.57,3.52,.35,0,1.07-.36,1.07-.36-2.88-6.06-10.35-10-10.35-18.2,0-9.27,1.07-20.69,10.68-20.69,3.2,0,5.73,2.13,7.5,4.66-2.12-8.56-7.19-15.72-10.01-24.63-.75-2.14-2.93-6.08-2.93-9.64v-8.56c-5.3-5,.77-6.99-.65-11.99Z"/>
      <path class="cls-1" d="M2280.21,284.37c.1,.13,.19,.29,.29,.43,.38,.34,.8,.65,1.16,1.01l-1.45-1.44Z"/>
      <path class="cls-1" d="M2226.38,271.54s9.62-.36,10.71,0c6.04,1.79,2.84,7.48,5.33,12.49,.7,1.77,6.42-.12,8.91-.12,1.08,0,1.78,2.37,2.5,2.37h27.82c-.35,0-.77-1.06-1.16-1.6-7.89-7.09-19.53-10.25-19.53-23.18,0-22.82,24.6-46.7,42.81-51.69,6.41-1.77,8.19-9.62,17.09-9.62,4.31,0,5.72-7.12,7.86-8.19,11.75-5.71,20.68-2.84,33.17-8.91,8.91-4.27,36.36-6.41,36.36-18.55,0-3.91-9.98-8.9-14.28-8.9-17.83,0-34.58,20.32-53.48,20.32-4.28,0-6.42-4.27-10.69-4.27-6.8,0-6.8,4.27-11.4,4.27-13.21,0-23.2,17.11-32.11,17.11-5.37,0-8.91,2.52-14.25,2.52-2.51,0-3.57,2.13-3.57,3.55,0,2.14,2.49,3.57,2.49,6.44,0,9.99-18.55,15.32-18.55,21.38,0,2.86,5.34,3.58,5.71,7.85-5.71,1.43-16.76,3.93-16.76,10,0,3.91,0,5.32,0,5.32,0,6.43-11.04,5.72-11.04,14.28,0,4.28,6.05,7.13,6.05,7.13Z"/>
      <path class="cls-1" d="M2278.07,282.24l2.14,2.13c-.74-.93-1.49-1.69-2.14-2.13Z"/>
      <path class="cls-1" d="M2247.28,768.67c-5.3,1.08-11.33,2.14-17.4,2.14-4.62,0-13.87,.7-16.72-2.14-2.14-2.12-3.02-5.68-6.24-6.42-3.9-.71-8.62,1.42-10.4-2.5-2.14-4.27,1.01-7.13-1.84-11.4-1.77-2.87-4.66-2.51-4.66-6.07l5.01,.7c4.27-5.69,4.26-14.27,9.96-17.11-9.62-5.33-24.26-26.74-24.26-38.88,0-3.56-7.84-8.89-7.84-14.26,0-1.77,6.77-14.98,8.56-17.12,1.79,1.09,12.47-4.99,13.56-5.34,9.25-3.56,14.97-6.05,26.72-6.05,19.28,0,22.48,9.28,29.61,19.98-5.36,4.25-12.47,.33-18.9,.33-9.61,0-23.88,9.28-24.97,8.93,.37,7.14,6.06,6.76,8.22,10.7,6.76,11.76,16.4,16.4,16.4,30.31,2.85-1.43,9.62-5.81,12.13-6.18,.37,5.35,6.04,7.41,6.04,12.71h-10.68c-3.21,0-6.42,4.4-7.14,9.75,7.49,1.07,12.5,8.61,12.5,15.38,0,3.93-1.86,5.21-1.86,8.42s4.2,7.34,4.2,7.7v6.42h0Zm86.08,17.11c-3.56,0-5.35-2.85-8.91-2.85-1.07,0-1.07,1.78-1.79,2.13-1.2-1.8-1.06-4.28-1.01-7.06,.1,1.92,.28,3.93,1.07,6.07,4-4.45,7.08,1.71,10.64,1.71h0Zm-280.04,64.66l.02,.07c0,.07,0,.12,0,.18,0-.08,0-.17-.01-.25h0Zm-148.28-307.11c.38-.04,.79-.08,1.16-.12-.37,.03-.78,.07-1.16,.12h0Zm1648.67-216.5c-28.18-16.42-65.61-33.9-106.97-33.9-11.43,0-19.36,2.38-17.83,7.13,11.01,34.63-16.42-.35-23.21,0l-82.01-1.78c-4.63-18.53-16.78-24.95-41.02-24.95-13.19,0-33.13,4.98-40.98-1.79-7.16-6.06-7.51-14.62-17.84-17.84-21.78-7.13-45.3-14.8-73.11-14.8s-31.73,15.57-33.9,26.17h-57.03c-10.04,0-11.41-5.86-23.2-6.57-1.08,5.01-3.21,17.24-8.91,17.24-14.98,0-21.39-17.99-21.39-27.94,0-2.53,28.81-19.04-44.59-25.12-9.24-.77-14.26,5.28-14.26,15.89h-39.22c-11.76-5.3-73.47-11.7-81.33-24.52-46.8,38.18-36.36,14.38-36.36,14.38,11.07-13.9,118.86-48.17,30.31-64.08h-37.45c-3.56-10.6-11.42-20.41-26.73-20.41-18.55,0-26.03,13.51-35.68,21-7.11,5.35-53.23,23.71-49.21,6.94-11.75,3.57-61.97,6.86-88.09,30.23-5.46,4.9-7.11,19.56-15.33,19.56-11.78,0-55.99-4.31-55.99,16.03,0,4.27,3.93,8.53,5.33,14.26-7.82,4.98-10.68,0-35.64,0-21.16,28.34-19.25-4.3-24.25-10.7-1.78,11.41-9.26,16.4-18.56,21.38,2.87,10.01,18.09,20.37,7.15,32.1-7.52,8.09,14.5,34.62,2.91,34.62-14.97,0-18.96-53.87-18.96-64.93,0-12.13,19.85-17.08-10.69-23.17-15.39-3.05-44.57,22.11-44.57,35.67,0,16.39,7.47,27.09,16.04,35.64,19.85,31.04-27.57-3.59-45.25-8.17-48.82-12.65-33.08,3.92-33.21,6.4-1.56,27.49-13.21,5.35-19.61,5.35-11.07,0-33.68,15-49.95,7.14-8.19-21.04-61.68,26.76-74.87,26.76-4.28,0-10.47-3.14-8.92-7.14,5.55-14.4-2.47-45.62-17.82,1.77-1,3.06,5.34,4.29,5.34,10.69,0,12.5-18.36,3.92-28.35,7.13-9.98,3.24-3.76,37.32-46.17,19.65v14.26c-15.9-1.8-18.01-23.55-25.14-33.91,15.33,0,23.61-.47,38.44,3.43,19.81,5.21,59.71-19.6-1.15-39.06-17.41-5.59-55.99-24.97-67.77-24.97-1.06,0-1.43-1.42-9.64-.36-1.08,0-8.57-1.07-11.78-1.44,0-2.14-2.5-2.47-6.06-5.35,8.2-2.85,11.04,0,14.27-8.55-2.85-1.44-10.71-5.71-12.48-5.71-2.87,0-4.27,2.5-5.36,5.35-3.93-.36-3.23-3.57-3.58-8.19-5.68,3.54-8.55,4.99-13.54,9.97-.35-2.14-.35-3.92-1.79-6.43-6.05,3.23-8.19,11.42-15.31,10.71,1.42-4.99,7.51-6.42,7.51-11.41,0-4.64-13.58,4.27-18.93,4.27-3.22,0-5.33-2.85-7.51-5.33-1.06,2.13-7.46,3.56-7.46,5.33,0,2.49,5.16,3.22,8,4.29-6.42,3.56-14.46,1.44-14.46,9.98v-6.06c-15.9,.36-15.9,8.57-15.9,9.63v-4.28c-5.3,1.07-13.08,.7-16.63,4.28,1.41,1.43,.4,1.07,2.17,2.86-2.48,1.42-4.97,.71-7.44,.71-3.57,0-6.58,2.87-8.37,5.72,3.21-.36,3.12,0,5.63,.7-.73,.34-4.68,8.92-6.47,8.92-4.63,0-6.09-3.56-11.8-3.56,1.1-2.5,.73-4.3-1.08-6.43-1.06,1.06-2.12,2.49-3.22,4.63-1.06,0-1.75-1.07-2.84-1.07-2.83,0-4.65,2.12-5.36,5.68,0,0,3.57,1.09,5.36,1.09-1.43,.71-5.36,2.48-7.14,5,8.56,0,12.12-4.63,21.05-6.44-1.78,7.5-11.78,19.64-19.27,22.48-7.49,2.84-12.48,7.85-16.76,14.96,0,.38-3.57,8.21-3.57,8.21-2.84,0-2.13,11.06-6.43,14.26-10.68,8.59-16.75,21.05-32.44,24.97,3.21,.72,4.65,1.44,8.56,2.51-12.83-1.44-14.26,7.11-20.69,8.91-7.83,2.13-11.77,6.41-16.05,12.48-2.13,3.21-7.84,2.84-7.84,8.19,0,9.98,.71,18.93,6.06,25.33-1.8,2.49-4.12,6.77-4.12,9.26,4.28-1.77,5.52-1.77,10.82-1.77v5.33c-5.3,.73-7.62,2.51-7.62,5.38,0,1.4,13.1,9.96,15.24,9.96,15,0,26.02-13.53,33.5-24.25,2.33,3.36,2.96,6.39,6.89,8.5-.75,1.34-1.84,3.33-1.84,5.06,0,6.41,5.32,7.85,7.08,13.18,2.49,7.85,1.75,12.85,7.83,18.93,0,1.05-.73,2.47-.73,3.57,0,1.76,4.99,18.57,7.84,18.57,8.92,0,11.05-9.57,17.12-9.57,2.84,0,4.61,0,9.61,0,1.1-10.6,9.63-9.31,10.69-18.96-2.12-.36-5.33-2.71-5.33-6.96,0-7.49,2.85-18.29,9.98-18.29,3.58,0,14.27-9.15,14.27-14.49,0-6.78-9.42-13.32-15.82-14.4,0-2.49-2.67-5.08-2.67-6.52v-7.13c0-2.52,1.59-9.29,4.44-14.27,3.57-6.42,9.89-7.85,15.95-11.43,7.48-4.28,23.82-11.41,23.82-19.61,1.08-2.16-.03-3.91-.03-8.2,0-9.98,9.64-14.26,21.39-14.26,8.94,0,20.69,1.77,20.69,10.69,0,6.06-8.54,7.86-13.56,10.71-9.26,5.35-17.11,24.96-32.1,24.96,.72,2.49,0,4.64,0,7.14,0,3.91,3.19,12.11,6.76,13.53-1.04,1.79-4.98,4.3-4.98,7.87,0,7.49,7.84,12.46,15.34,12.46,0,3.93,3.21,4.64,7.81,4.64,6.1,0,14.27-3.2,21.41-5.33,6.76,1.04,23.18,0,26.75-7.14,2.86,3.92,6.43,5.71,8.91,12.47-4.27,2.86-14.98,7.86-19.61,7.86-6.08,0-9.99-2.51-17.84-2.51-7.85,0-25.8,7.24-20.32,12.34,18.03,16.81,8.55,23.33,4.27,23.33-7.14,0-8.2-8.92-14.28-8.92-6.42,0-14.26,16.41-14.26,24.98,0,13.9-11.42,12.01-12.14,24.48-4.13,.42-8.5,.83-12.84,.83,0-.71,.73-2.51,1.44-3.91-2.49-1.08-7.49-1.44-12.11-1.44-4.3,0-9.99,5.34-13.22,6.77-5.33,2.5-9.97,1.43-16.02,4.29-1.8,.72-2.16,3.2-6.07,3.2,0,0-6.08-4.28-6.08-4.98,0-1.07,1.78-2.16,2.15-3.93-8.2-1.06-14.98,7.14-24.6,7.14-1.07,0-1.8-2.51-2.5-4.28-3.21,0-4.64-1.43-8.57-1.43,.37-1.07,0-1.77,0-3.93-2.13-.36-3.92-2.84-3.92-6.41,0-6.41,3.34-9.63,6.91-13.18,1.09-1.1,3.35-1.81,3.35-3.57v-2.85s-4.46-.36-4.46-3.92-6.14-5.73,4.46-9.29v-4.27c-15.91,6.42-24.21,7.48-24.21,22.45,0,8.56,5.02,11.41,6.45,21.04,0,.36,2.14,7.13,2.14,8.94,0,2.85-5.89,6.07-8.02,6.07-3.22,0-6.5-2.15-9.01,.34-.72,.74-1.82,3.57-2.9,2.49-2.49,1.08-.36,0-5.01,0-8.2,0-13.21,5.71-18.2,10.71-.36,.36-3.56,2.5-3.56,3.93,0,4.27,1.08,8.56-1.79,11.4-1.42,1.43-15.7,7.14-17.83,7.83-1.79,.38-2.85,.73-4.99,.73-2.15,8.56-4.99,16.39-15.69,16.39-.72,2.86-3.22,4.31-6.07,4.31-4.28,0-7.85-5.68-10.68-5.68h-2.57v14.57c0,.37-4.96,1.79-7.82,1.79s-8.37-1.42-9.43-3.57c-3.58,1.06-13.47,3.21-13.47,6.42,0,.35,.05,1.41,.41,1.41,0,5.38,15.71,8.22,21.43,10.01,1.78,.32,2.15,2.15,4.29,2.49,0,5.7,2.13,12.1,9.28,12.1,0,2.87,2.14,2.18,2.14,5.38,0,1.43-.71,3.94-1.44,5.34l.72-.57c0,2.15,.37,8.42,.37,9.85,0,6.78-4.62,8.92-4.62,16.05-1.08,0-6.43,.74-8.93,.74-3.56,0-5.7-2.48-9.98-2.48h-17.13c-1.77,0-4.63,0-6.06,0h-16.04c-2.15,0-3.92-1.45-5.35-1.45-2.15,0-14.27,7.49-14.27,9.61,0,3.23,3.91,8.19,3.91,13.56,0,9.27-3.2,18.53-3.2,27.47,0,2.48-4.34,3.55-4.34,8.18,0,2.87,0,5,5.3,5,0,4.29,0,6.77,0,14.26,0,1.07,1.11,2.86,3.25,2.86,5.36,0,9.49-2.48,15.55-2.48,8.2,0,8.66,13.19,14.01,13.19,7.84,0,11.83-7.13,20.39-7.13,1.77,0,10.41-1.79,10.41-.73v-.36c10.6,2.17,8.53-6.79,12.82-8.9,7.48-3.57,9.96-7.87,14.62-14.99-1.78-.72-3.4-1.78-3.4-4.63,0-7.83,10.43-22.46,16.85-23.9,7.49-1.76,15.39-4.27,17.52-11.4l-2.11-7.85c0-5.36,5.7-8.93,11.06-8.93,7.14,0,12.14,3.93,19.97,3.93s12.48-6.4,19.27-9.63c3.2-1.43,3.56-6.06,9.98-6.06,13.55,0,15.7,14.61,22.11,22.82,.72,2.49,6.06,3.92,8.55,6.41,6.08,6.07,8.57,9.28,19.62,11.78,0,2.13,5.35,3.62,6.76,3.62,.37,2.15,8.94,10.66,9.98,10.66,.74,3.21,3.58,4.63,3.58,9.98,0,4.29-1.77,9.62-6.06,9.62,0,1.45,1.44,2.5,3.92,2.5,5.01,0,4.31-7.49,7.51-10.7,0,0,4.62,0,4.62-1.79,0-4.63-6.42-5.68-6.42-10.33,0-3.56,3.56-5.69,7.86-5.69,5.7,0,7.85,4.63,11.43,5.33,1.05-7.49-7.5-10.35-14.64-13.91-2.14-1.07-10.69-2.85-9.26-7.14,.7-.72,.7-1.77,.7-2.86-5.36,0-8.91,1.8-14.27-.7-2.85-1.44-5.35-7.13-6.77-12.13-1.08-3.2-3.93-9.28-9.28-11.04-4.29-1.44-7.48-3.57-7.48-8.94,0-2.13,.7-4.27,1.42-6.42-.72,0-1.8-1.43-1.8-2.11,0-3.96,7.86-2.8,11.79-5.28,2.12,2.15,0,10.8,4.63,10.8h10.7c0,5.3,8.93,15.9,16.77,15.9,1.76,0,2.85,0,4.99,0,0,5.3,6.5,6.39,11.48,8.89,5.01,2.5,13.65,11.03,13.65,16.03,0,2.87,0,4.99,0,9.28,0,7.49,4.91,10.7,9.19,14.99,3.2,3.2,5.65,3.32,7.1,8.3,0,.73,.31,.83,1.73,.83h6.08c-1.07,10.6-4.63,4.89-4.63,7.4,0,6.05,4.98,13.8,10.71,13.8h4.96c-3.57,0-.6-5.01-.6-7.14,0-2.86-2.72-2.88-2.72-5.03v-2.85c0,1.8,6.55,4.43,10.44,4.43h.75c.71,0,4.27-.61,6.05-1.68-.7-.71-1.42-1.9-1.42-2.99-2.86,0-12.5-8.77-12.5-9.87,0-1.06,1.08-2.06,1.45-4.23l-6.76-7.8c0-1.77,2.09-3.89,3.92-3.89,3.2,0,3.91,5.33,9.27,5.33,.71-2.85,.71-4.97,0-7.83,4.63-1.42,6.05-4.63,11.76-4.63,6.41,0,9.62,7.14,14.96,7.14,4.63,0,5.72-4.64,10.34-6.79,3.21-1.43,5.71,0,8.91-1.07,1.78-.36,3.22,0,4.65-1.44-2.17-3.22-9.98-8.19-9.98-15.32,0-5.01,11.76-12.13,11.76-15.69v-9.27c0-2.14-.88,.75,.44-5.05,0-3.56,2.93-5.28,6.49-6.01-.35-1.78-.45-3.56-.8-5.35,7.83-2.14,8.33-11.42,16.18-11.42,6.42,0,22.72,26.75,27.7,26.75s22.07-7.5,24.92-11.06c-.73,0-10-1.43-10-1.43-1.43,0-6.09-1.05-6.09-5.34,0-2.85,26.02-12.48,35.66-16.04,0,0-4.63,5.33-6.45,6.05,.73,2.13,10.02,11.82-10.71,17.11,8.95,21.05,49.94,17.49,49.94,45.65l1.45-.23c1.06-.47,2.18-.25,3.38-.52-8.1,1.85-12.44,9.79-20.87,9.79h-20.31c-3.93,0-17.85-3.43-17.85-7.72-8.18,0-7.84-5.64-17.46-5.64-6.1,0-16.06-.79-20.71,2.06-3.91,2.5-10.34,6-14.62,6,0,0-6.79,0-11.05,0-1.8,0-8.56-.45-8.56,2.77,0,2.49,2.15,1.91,2.84,4.79-6.41,3.2-32.1,1.3-32.1,12.35,0,2.16,3.56,1.93,6.07,1.93-.7,1.75,0,1.81,0,4.32,0,6.77-3.91,6.1-7.47,9.67,4.96,2.5,8.89,2.15,12.1,6.79-3.56,3.57,6.78,7.52,8.94,9.67-.37,.69-1.81,.73-2.87,.73h3.93c6.77,0,10.34,7.83,17.11,7.83,6.42,0,4.99-7.5,12.49-7.5s10.33,9.26,17.82,9.26c10.33,0,12.13-4.46,17.84-8.73,1.43,1.41,2.38,2.94,5.94,2.94,2.85,0,5.57-2.06,5.57-3.12v3.56c0,.71-1.28,1.43-1.28,3.56,0,4.28,2.36,9.27,2.36,15.33,0,8.21-6.82,9.98-8.97,17.11-2.14,7.15-3.04,11.07-5.54,18.91-.37,1.45-2.83,1.45-2.83,3.91l2.37,5.58c-.57-1.1-1.11-2.22-1.58-3.42-4.64,1.07-4.63,2.86-9.97,2.86-7.85,0-11.77-4.64-18.55-4.64-11.05,0-14.62,5.35-26.03,5.35-12.47,0-28.53-5.35-39.94-9.63-5.69-2.14-13.9,.89-17.1-3.41-1.44-2.12-5.4-2.73-5.4-8.03h-7.81l-.1-.87c-11.04,3.57-18.69,3.4-18.69,14.82v7.13c0,1.77-4.86,6.4-8.07,6.4-26.39,0-35.55-27.47-58.72-27.47h-9.99c-6.77,0-16.05-8.91-16.05-17.82,0-5.36,4.63-8.73,4.63-14.07,0-3.21-4.63-4.9-4.63-8.12,0-4.64,4.99-4.03,5.35-9.41-2.15,.36-3.2,2.1-5.35,2.1-5.7,0-3.92-6.45-10.7-6.45-6.78,0-7.13,5.32-14.27,5.32-3.92,0-6.06-2.5-10.69-2.5-5.35,0-11.08,5.34-14.99,5.34-2.85,0-7.48-3.57-12.47-3.57-16.04,0-42.44,9.98-56.33,16.76-4.3,2.13-5.73,6.42-13.21,6.42-12.12,0-21.4-.47-30.32-6.88-3.56,2.84-4.28,6.37-7.12,11.67h.71c-8.91,5.3-21.04,20.08-30.31,31.83-7.14,8.93-1.78,13.61-6.05,26.8-1.8,5.71-10.71,12.34-16.07,15.53-6.4,3.57-15.68,2.63-20.67,9.38-8.56,11.77-19.26,30.54-23.91,44.45-1.77,5.7-9.99,9.92-9.99,17.08,0,14.22,7.16,24.18,7.16,39.89,0,8.92-7.16,28.15-14.98,32.08,2.49,4.99,5.34,5.95,5.34,10.93,0,3.24,1.8,5.3,1.8,10.6h-1.09c1.78,0,2.86,3.68,4.63,5.81,0,1.42,18.91,18.61,21.41,20.39,8.92,7.11,11.05,15.88,17.83,26.22,7.48,11.41,28.16,23.64,38.17,31.12,1.41,1.08,6.41,2.92,10.69,2.92,13.91,0,19.97-7.13,33.86-7.13,7.14,0,16.05,5.38,21.4,5.38,5.35,0,7.15-4.63,12.49-6.42,13.56-4.27,26.74-13.33,44.57-13.33,14.63,0,17.12,19.86,27.83,19.86h14.98c12.13,0,18.55,7.97,22.47,15.83-3.56,2.84-3.56,13.96-3.56,18.25,0,1.41-1.44,2.34,0,5.55-2.5,1.43-8.21,10.45-8.21,14.38,0,16.78,20.32,29.27,29.59,41.05,4.64,6.07,3.23,14.29,6.08,21.44,3.56,8.91,6.4,14.27,8.91,29.6,1.08,7.84,4.64,11.41,4.64,20.34,0,18.89-22.47,24.96-22.47,49.93,0,23.17,10.49,36.73,20.47,53.49,2.87,5.01,6.92,6.78,6.92,11.79v9.6c0,31.39,16.61,52.42,29.47,74.19,1.79,3.2,11.87,13.91,11.87,19.6,0,3.93-1.74,6.78-4.58,9.65,2.84,2.84,6.43,10.69,6.43,17.82,.73-.37,1.45-1.45,3.59-1.81,2.15,3.93,5.35,7.13,11.42,7.13,13.55,0,22.48-10.69,37.45-10.69,3.91,0,6.08,3.56,9.97,3.56,3.22,0,6.07-2.12,10.71-2.47,1.07-6.42,10-3.58,16.06-6.42,14.61-7.12,18.53-17.12,27.46-28.53,5.69-7.15,6.4-15.36,14.27-23.19,4.26-4.28,14.26-12.12,14.26-22.09,0-3.21-2.15-5.75-5.35-7.51,4.27-8.94,9.27-12.5,17.82-16.77,2.5-1.07,8.56,.36,10.68-2.49,2.17-3.22,2.88-14.98,2.88-20.69,0-10.7-10.01-16.03-10.01-23.88,0-3.93,5.74-9.98,10.7-10.72,3.93-23.5,51.03-20.29,51.03-48.11,0-2.87-.35-5.02-2.5-7.12,0-10.02,1.45-16.79,1.45-22.48v-8.93c0-.71,2.14-3.21,2.14-5.35,0-6.77-13.4-12.83-13.4-24.96,0-10.69-2.95-15.69-2.95-26.71,0-10.01,9.24-12.53,11.75-21.41,8.91-31.75,34.2-37.45,57.74-55.99,13.19-10.33,17.8-23.18,28.5-37.48,8.94-12.1,24.98-38.5,24.98-58.81,0-2.13-1.43-3.22-2.5-5.37-12.83,3.24-25.7,8.56-39.23,10.72-5.35,.7-8.93-1.8-14.28,0-4.62,1.41-4.99,6.07-10.7,6.07-6.06,0-10.69-11.41-15.33-14.99,3.56-4.28,.21-5.17,.21-11.24-11.76,0-14.81-14.78-20.53-19.09-6.44-4.62-10.35-4.98-16.05-10.67-6.42-6.42-3.74-15.7-10.15-24.26-5.37-7.13-12-7.13-17.3-16.76v-18.87c-10.6-4.31-15.83-20-14.05-27.47l-33.66-59.92v-6.07c5.3,6.07,13.14,22.13,20.65,23.19,1.14-3.45,5.56-12.67,7.04-17.81-.73,4.37-1.62,8.96-1.62,11.39,0,1.05,5.08,6.77,6.17,8.54,3.94,6.07,7.57,11.43,11.85,17.84,1.4,2.12,3.94,5,5.01,8.57,.72,2.14,.02,7.49,2.17,9.63,1.06,1.06,5.71,.36,7.13,1.78,1.07,1.08,2.86,3.22,4.64,4.64,1.45,6.76,6.08,8.57,6.08,16.76,0,13.56,2.96,20.86,15.44,23.7,0,8.57,9.89,20.87,14.16,25.14,3.92,3.92,9.92,7.14,8.13,14.99-.72,3.2-3.49,9.98,.45,10.34,0,6.76,2.54,12.62,6.27,18.19,2.34,3.54-.47,3.56,.44,4,.95,.51,10.05,4.91,11.13,4.91l2.22-.35c7.49,0,8.45-6.22,14.52-6.22h11.07c4.63,0,18.89-13.14,23.16-14.2,8.57-2.14,19.62-5.13,27.82-9.03-.71-.73-1.41-2.38-1.41-3.47,0-7.83,21.74-11.9,31.37-13.66,0-4.29,6.78-10.41,9.98-10.41,5.34,0,4.98-10.37,10.34-10.37,4.29,0,3.92-6.08,5.34-10.35,1.43-4.3,4.99-5.74,10.35-5.74,0-8.53,8.82-11.42,8.82-19.6,0-3.21-3.03-2.51-8.33-5.7v.31c0-1.4,1-7.46-2.93-8.53-10.35-3.2-18.27-5.01-18.27-15.34v-13.19c-21.2,9.61-16.93,24.25-40.83,24.25-5.36,0-15.77-2.5-15.77-7.49,0-4.29,1.91-7.15,1.91-11.43,0-1.41-.29-2.49-.63-3.9-3.58,.71-3.02,5.34-7.29,6.41-.34-3.21-2.52-4.29-2.52-8.22-8.21-1.79-18.25-17.08-20.38-25.67-.74-2.84-.76-4.62-.76-8.2,0-4.99,2.12-11.41,7.12-11.41,9.99,0,17.83,11.08,21.75,18.91,.72,1.42-.36,4.27,1.79,6.4,3.91,3.94,9.62,1.99,13.91,6.29,3.55,3.55,6.43,10.18,12.13,10.18h17.85c2.11,0,3.56-5.55,7.5-5.55,7.47,0,7.46,10.58,11.02,14.15,.36,.35,10.7,3.11,12.5,3.11,9.62,0,25.31,4.19,32.1,4.19h1.78l12.49-.68c.72-.69,1.75-1.78,3.19-2.5l9.26,2.52c3.57,0,4.66-2.83,8.93-2.83,3.94,0,6.78-.72,10.71,.33,4.28,1.45,6.41,9.65,9.26,14.28,3.57,5.36,13.9,12.49,21.03,12.49,2.84,0,5.37,0,8.22,.72-1.45,1.41-1.8,4.61-4.65,5.34-3.2,1.09-5.69-.72-8.9,1.44,5.33,5.33,9.63,16.91,20.67,16.91,9.27,0,9.63-10.92,14.28-16.22h2.83s-2.12,3.39-2.12,4.44c0,4.66,3.56,8.68,3.56,14.37,0,4.47-1.62,5.23-1.75,10.02l-.26-.31c0,1.07,.57,3.97,.57,5.05,0,6.78,3.94,13.54,6.08,20.66,2.5,7.85,8.92,19.62,10.69,24.96,1.44,4.63,1.44,6.78,4.3,11.41,2.84,4.27,1.08,8.91,3.91,14.62,1.42,2.85,6.43,6.43,7.86,11.39,2.48,7.49,6.41,14.62,9.26,23.21,.35,1.06,1.42,3.55,3.21,3.55,.34,2.5,2.5,3.92,5.35,3.57,2.86,0,3.24-4.29,4.63-7.12,1.79-3.58,2.51-2.18,6.77-4.28,2.87-1.44,1.8-10.72,6.79-12.13,1.05-.38,3.58-.38,3.58-1.44l1.76-.35-1.76-9.28c0-6.77,4.25-12.48,4.25-21.41,0-5.68-2.49-9.27-2.49-15.69,0-7.5,7.5-8.55,13.9-10.69,2.5-.71,6.43-4.98,9.26-7.85,6.8-6.79,13.21-13.91,20.33-21.06,5.72-5.68,16.06-7.45,22.47-13.9,3.21-3.21,2.86-7.14,4.27-12.09,1.1-3.24,8.57-3.58,11.05-8.94,2.88,1.79,2.88,3.57,8.57,3.57,9.28,0,19.25-2.15,19.25-12.83,5.36,1.07,11.43,3.21,12.84,8.21,1.45,4.26,.73,10,3.56,14.26,2.88,4.62,6.8,7.47,11.78,11.4,3.56,5.71,7.86,11.42,10.34,18.93,.36,1.77,2.14,2.84,2.14,4.62,0,3.93-1.78,6.07-1.78,10.71s.36,8.9,5.68,8.9c10,0,12.52-10.33,18.57-16.4,2.14,2.14,1.07,3.56,3.2,5.71,.72,.71,3.57,0,4.66,1.79,3.57,5.34-3.54,16.03,1.09,16.03,0,11.43,8.24,21.32,8.24,37.04,0,3.9,0,14.58,0,14.58h.28c-1.06,5.3-.28,6.86-.28,11.85,0,.73,0,4.05,0,4.05h3.88c5.73,0,7.85,11.91,10.33,16.88,3.92,8.21,4.45,15.23,7.66,25.56,3.94,11.79,13.83,22.22,24.89,25.8,2.12,.69,2.42,3.09,5.98,3.09,1.08,0,1.42-1.49,2.49-1.49,1.42,0,1.76-.03,4.61-.39-1.77-3.92-1.77-5.71-3.21-10.35-1.42-4.31-6.77-6.43-6.77-12.83,0-3.23,1.42-3.23,1.42-6.8,0-17.83-21.05-21.85-30.68-31.48-2.48-2.49-2.85-2.68-4.27-13.28h.7c0-5.3-12.1-4.18-12.1-15.25,0-9.62,10.33-11.51,10.33-22.21,0-2.88-1.43-3.11-1.43-6.35,0-1.75-.72-3.66,2.16-3.66,3.91,0,8.17,.82,9.25,4.76,0,0,1.08,4.69,1.78,4.69,5.73,1.77,10.71,2.17,15.71,7.16,4.28,4.3,.35,9.63,8.21,9.63,0,5.36,7.13,7.14,12.46,7.14,.36,1.81,1.09,4.66,2.5,5.38-1.41,.71-1.41,2.11-1.41,4.99,0,2.14,.58,7.13,2,7.13s7.74-5.34,7.74-8.91v-3.92c0,1.07,.84,3.22,1.89,3.22,4.29,0,3.98-5.7,8.27-7.87,9.27-4.63,10.56-8.55,21.97-11.4,0-6.43,4.4-9.63,4.4-17.85,0-11.75-5.69-27.44-14.23-33.15-8.92-5.7-12.48-14.98-20.66-23.17-1.44-1.43-3.2-2.15-3.2-5.35,0-15.32,17.47-17.83,24.62-28.9,6.07,2.85,10.33,.72,17.14,3.92-.37,1.82-1.45,8.94,1.77,8.94,3.93,0,1.81-4.66,4.65-7.49,2.49-2.52,9.62-3.57,12.47-5,6.77-3.22,13.56-1.79,17.82-6.06,0,0,3.57-6.78,4.29-6.78,3.57,0,5.35,2.84,8.91,2.84,16.4,0,20.33-9.97,30.31-15.69,2.85-1.42,4.66-2.86,5.36-6.43,8.55,0,11.04-13.19,14.27-19.93,2.15-4.31,11.76-18.57,17.12-19.64,0-7.83,5.34-11.41,5.34-21.74,0-15.34-3.56-21.04-9.98-30.67-1.09-1.79-1.09-5.69-4.28-7.47l.37,.04h-.72s-.36-6.12-.36-7.15c-2.87-.36-9.64-4.14-9.64-9.14,0-4.28,6.06-4.72,7.5-8.98,3.22-9.65,18.51-9.69,25.66-16.82-2.85-3.92-8.18-.03-13.19-3.24-2.49-1.43-3.9-4.29-7.84-4.29-2.88,0-2.88,7.86-4.99,7.86-2.85,0-6.41,1.04-9.27-.73-4.28-2.86-2.85-6.43-7.14-9.65-1.41-1.06-7.48-2.49-7.48-6.06,0-7.5,10.34-4.99,15.33-8.56,4.28-3.22,12.49-8.56,15.33-13.2,.73-1.07,2.16-4.65,5.73-4.65,2.85,0,6.77,4.65,6.77,6.8,0,5.69-6.77,8.19-6.77,14.61,9.98,0,18.16-10.7,29.58-10.7,4.29,0,6.06,3.91,11.42,3.91-1.81,3.57,0,3.57,0,7.85,0,3.57-3.93,3.21-3.93,7.5,0,1.79,1.07,6.05,3.57,6.05,1.05,0,2.49-1.76,4.99-1.76,4.26,0,9.47,2.84,9.47,7.13,0,2.49-5.87,4.63-5.87,4.63v3.57c0,.7,1.59,2.14,3.73,2.52,0,2.12,1.86,3.9,1.86,6.05,0,1.08-3.16,5.69-3.16,8.22,0,1.39,.02,2.92,1.78,3.26-.36,1.78-2.1,4.37-2.1,4.37h5.33c2.19,0,2.89-1.87,7.14-2.95,0-3.21,8.93-3.43,11.05-4.13,5.01-1.42,7.14-5.28,7.14-13.49,0-13.92-5.34-22.06-13.2-29.89-3.19-3.21-6.75-6.4-6.08-12.47,4.3,0,7.86-2.49,10.71-5.34,2.53-2.5,8.92-6.07,10.35-8.92,4.64-9.62,7.5-15.32,16.05-22.11,0,0,13.88,3.58,24.95,3.58,20.33,0,39.52-42.95,53.79-57.2,5.7-5.71,13.64-17.34,15.75-26.6,2.51-10.35-1.69-17,3.87-26.88,2.08-3.7,6.26-11.77,6.26-19.63,0-9.62-15.48-28.42-22.58-23.04-21.12,15.92-32.1-8.55-32.1-10.72,0-9.98,19.24-21.03,26.73-28.52,11.07-11.03,25.69-29.57,41.02-33.87,13.54-3.56,56-7.72,67.77-7.72,14.59,0,21.39,6.52,30.29,6.52h19.61c5.73-21.21,16.43-36.84,41.03-36.84,6.41,0,9.26-1.5,21.4,.29-6.09,4.63-8.62,35.69,30.3-12.33,3.93-.72,22.6,7.06-5.34,25.04-9.76,6.27-18.54,3.25-24.95,12.52-7.49,10.7-14.26,24.27-24.96,30.32-8.93,5-21.41,13.2-21.41,28.55,0,13.18,4.28,56.36,14.28,64.2,7.13-10.71,12.11-30.33,26.72-33.9-1.78-9.96,14.28-12.1,14.28-19.58,0-11.79,12.48-14.98,12.48-21.4,0-4.29-3.49-8.64,0-16.07,28.83-61.65,55.27-28.52,65.98-28.52,31.74,0,54.2-40.48,82-41.02,52.96-1.04,10.72-21.04,10.72-26.72,0-15.35,20.7-12.87,24.97-21.41,1.78-3.56-1.79-12.51,5.33-12.51,22.46,0,41,30.33,57.07,30.33,7.14,0,8.55-13.19,12.46-17.82,6.08-7.14,11.79-6.43,21.4-9.63-12.81-17.13-54.56-26.76-74.89-38.51Z"/>
      <path class="cls-1" d="M3515.57,278.67c3.91,0,32.08-1.77,32.08-6.41,0-5.35-13.54-8.91-18.9-8.91-6.07,0-16.76,6.41-16.76,11.77,0,1.79,1.44,3.56,3.58,3.56Z"/>
      <path class="cls-1" d="M3414.65,300.13c1.78,0,3.57-2.15,3.57-3.91,0-2.14-2.15-4.63-2.5-4.63h-11.78c2.13,5.3,5.7,8.55,10.71,8.55Z"/>
      <path class="cls-1" d="M3075.13,187.74c2.58,0,3.11-2.63,3.46-4.72l.11,.07-.11-.11c.02-.2,.07-.41,.1-.59h-.71s-2.87-2.86-2.87-2.86c-1.43,1.8-2.84,3.2-2.84,5.37,0,2.12,1.08,2.84,2.84,2.84Z"/>
      <path class="cls-1" d="M2840.49,205.58c-3.57,0-7.86,1.76-7.86,5.33,0,3.21,3.93,4.29,7.86,4.29,2.87,0,5.14-.88,7.38-2.07,.46-.61,.82-1.3,.82-2.21,0-4.29-3.22-5.33-8.2-5.33Z"/>
      <path class="cls-1" d="M2845.82,215.2l2.87-2.5c-.28,.16-.55,.29-.82,.43-.61,.82-1.43,1.45-2.05,2.07Z"/>
      <path class="cls-1" d="M2706.76,131.41c0,3.55,1.04,5.31,5.34,5.31l18.9-5.31s11.05-1.81,12.47-1.81c6.44,1.07,24.98-.37,24.98-8.9,0-5.02-14.64-14.25-19.6-14.25-2.49,0-3.92,4.78-6.44,5.49,2.86-2.85,1.06-.6,1.06-5.91h-4.62c-14.27,0-17.47,11.24-25.68,19.46-2.15,2.15-6.4,.2-6.4,5.92Z"/>
      <path class="cls-1" d="M2620.44,88.61c0,3.2,5.02,8.91,7.13,8.91,4.29,0,16.05-.7,16.75-7.15-2.47-.69-12.46-5.35-14.25-5.35-2.14,0-9.64,0-9.64,3.58Z"/>
      <path class="cls-1" d="M2669.3,87.52c-11.4,3.56-14.98,7.49-26.73,11.41,5.32,2.86,14.62,12.84,18.88,12.84,12.84,0,24.26,6.42,39.96,6.42,3.21,0,7.11-2.15,7.11-5.35,0-2.49-2.84-3.58-5.33-4.3,2.13-.7,7.12-1.05,7.12-4.64s-.7-1.38,2.85-4.23c-4.64-4.66-4.64-4.26-11.76-4.26h-7.15c-4.26,0-6.41-6.45-10.69-6.45-2.84,0-3.94-2.51-7.49-1.43,2.85-1.44,6.79-5.01,6.79-7.15,0-1.79,.36-3.21,0-7.5,1.42,.36,.71,.88,4.27-.54-5.7-4.27-11.41-13.99-21.41-13.99-17.11,0-22.44,16.73-37.41,21.01,9.26,4.61,16.02,7.46,26.01,7.46,2.15,0,11.4,.67,14.98,.67Z"/>
      <path class="cls-1" d="M2668.59,160.4c4.27,0,6.43-1.35,7.12-6.65h-5.34c-1.45,0-3.21,2.25-5.37,3.33,.37,1.76,1.8,3.32,3.58,3.32Z"/>
      <path class="cls-1" d="M2625.8,61.16l-1.07-2.85h-13.19c2.13,10.6,8.9,3.57,14.27,2.85Z"/>
      <path class="cls-1" d="M2787.01,134.24c2.47,0,4.27-2.84,4.62-5.35-3.2,1.43-4.27-.35-11.76,1.05,1.07,1.8,2.85,4.3,7.15,4.3Z"/>
      <path class="cls-1" d="M2170.03,72.54c3.21,0,4.99,2.15,8.2,3.21-1.77,1.43-3.57,2.14-5.34,3.23,1.44,.35,3.19,.71,6.39,.71-2.83,.69-4.62,.42-7.47,1.85,1.08,3.21,4.64,3.28,9.97,3.28h-.34c1.05,0,2.13,4.19,3.91,4.56,3.23,.35,3.89-5.57,7.09-7.34,4.88-2.73,7.12,.94,12.42-.92v-2.14c0,.35,2.54,.36,3.63,0,4.29-3.23,8.94,0,9.66-6.44-2.16-.72-6.42-3.57-10.7-3.57-5.33,0-7.83,4.63-13.17,4.63-6.8,0-11.8-4.63-20.7-4.63-7.48,0-24.23,1.07-27.45,6.78,2.86,.37,5,1.43,7.86,1.43,5.34,0,12.11-4.63,16.04-4.64Z"/>
      <path class="cls-1" d="M2207.47,79.69c-.88,.68-1.7,1.11-2.49,1.43v1.43l2.49-2.86Z"/>
      <path class="cls-1" d="M2339.44,70.77c2.49,0,16.39-2.86,18.89-4.66l-4.98-11.39c-5.35,0-19.99,5.72-19.99,10.7,0,3.56,1.79,5.35,6.08,5.35Z"/>
      <path class="cls-1" d="M2319.82,79.69l-1.79-4.28c3.2,0,6.77,1.43,8.92-1.8,0-1.43,.34-2.12,0-5.34-3.23,.7-9.26,2.12-11.4,1.75,.7,0,2.84-1.1,3.54-1.1h-11.76s-.35,.03,0,2.89c-4.29,1.44-7.13,3.39-7.13,8.76,0,1.78,17.49,.18,19.62-.88Z"/>
      <path class="cls-1" d="M2282.37,78.98c-3.56,0-17.83,2.12-17.83,7.13,0,1.41,1.78,2.5,3.57,2.5,3.21,0,4.64,0,5.34-3.58,2.15,0,4.99,3.58,7.14,3.58,4.99,0,4.63-5.36,11.75-5.36-1.75-2.51-5.31-4.27-9.97-4.27Z"/>
      <path class="cls-1" d="M2280.58,71.83c3.93,0,7.82,.72,10.7-1.42-7.82-3.21-10.34-3.92-20.34-5.33,3.56-3.57,10.72-5.75,16.41-9.3,0-1.77,1.79-3.55,3.23-4.62,0-1.06-.36-4.28-1.08-4.28-3.2,0-5.12,2.86-5.49,6.07-10.34,0-10.23,7.13-20.83,7.13v4.64c5.3-2.12,.99-6.39,4.92,4.22h-14.99c-1.78,0-2.48,.39-4.61,2.18,.7,.36,15.31,5.9,17.81,5.9,4.3,0,9.99-5.16,14.27-5.16Z"/>
      <path class="cls-1" d="M1815.2,111.06c1.08,0,1.78,1.06,2.85,1.43-1.42,5.71,3.92,8.56,9.99,11.78-1.08,0-1.79,.35-2.85,.7,1.77,3.58,5.7,6.15,11.4,6.15,7.49,0,7.49-9.18,10.7-9.18h17.48c-3.91,5.3-13.55,8.66-18.17,10.07-1.8,.36-10,.94-10,4.14,0,8.58,9.27,4.95,13.57,4.95,2.49,0,13.92,.49,16.04,1.91-4.29,1.06-8.21,.08-11.76,2.95,0,0-8.2-1.05-13.21-.33,0,12.13,19.29,16.78,27.81,22.48,5.01-4.98,4.3-14.96,10.35-19.62,1.8-1.41,4.63-.7,5.38-2.83,3.55-9.27,7.47-24.96,19.57-24.96,0,0,2.88,4.63,8.57,5.34-1.79,0-3.18,.34-4.98,.72,1.45,2.84,4.64,9.28,7.12,9.96-.69,5.37-4.62,3.58-5.32,10,4.62,.36,12.1,0,16.4,.7-1.06,1.81-1.07,3.56-.37,6.43,8.94-2.88,12.85-9.74,22.47-12.96-3.2-4.63-13.53-3.06-13.53-13.67h-11.43c1.06,0,.72-2.73,0-4.52-2.5,.35-3.57,1.13-6.41,.41,1.07,0,2.48,.21,3.57-.15-3.57-4.26-22.48-14.87-28.54-14.87-1.07,0-2.49-.31-3.56-.31,.71-2.86,1.44-8.53-4.29-8.53-2.82,0-3.55,3.21-6.39,4.63,0-2.48,1.07-4.61,1.07-7.1,0-3.56-9.65-7.11-14.29-7.11s-7.11,0-7.11,5.32c0,6.79,2.14,9.99,4.27,15.7-8.91-3.21-6.43-15.7-16.06-15.7-3.2,0-6.06,2.85-6.06,6.06,0,2.16,1.08,3.93,2.49,4.64-2.49-2.48-6.05-2.48-9.63-5.33,1.08-1.8,2.5-2.86,4.28-5-8.2-1.43-12.12-1.43-17.82-1.43-3.57,0-11.05,6.78-12.48,8.54,2.5,2.5,6.42,8.57,8.91,8.57Z"/>
      <path class="cls-1" d="M1885.81,92.59c-.71,8.22,6.42,3.53,12.48,3.53,.72,0,15.35,.89,16.74,.89-1.76,.7-5.67,.6-8.89,1.67-.73,0-4.64,.64-7.13,.99,.36,2.86,1.42,6.36,4.62,6.36h20.34c2.49,5.3,6.05,5.73,12.46,5.73,10.36,0,28.18-12.04,36.76-17.73-2.16-4.27-8.93-9.2-16.05-9.2-5.35,0-3.21,0-11.76,0-5.35,0-7.49,3.6-10.69,3.6-.73-2.52,0-8.91,0-8.91h-4.3c-1.77,0-4.65,7.68-8.91,7.68-1.79,0-12.11-7.68-14.26-7.68h-15.13v4.78c0,1.09-4.14,.52-6.27,.52h-5.35c.35,0,2.48,5.65,5.35,7.76Z"/>
      <path class="cls-1" d="M1807.36,115.33c-.27,.11-.47,.25-.69,.39l.69,.69v-1.08Z"/>
      <path class="cls-1" d="M1818.4,130.67c-2.42-7.66-7.24-9.2-11.78-14.94-5.48,3.32,4.94,13.23,11.78,14.94Z"/>
      <path class="cls-1" d="M1806.29,115.33c.11,.15,.23,.26,.34,.4,.02-.01,.03-.01,.04-.01l-.38-.39Z"/>
      <path class="cls-1" d="M1599.09,578.95c0,4.29,4.62,8.2,8.91,8.2,2.15,0,5-.37,6.78-1.43,2.85-1.77,7.13-7.85,12.84-7.85,3.56,0,7.31,.36,9.46-1.77,2.86-2.85,.54-7.13,.54-9.99v-12.12c0-2.85,6.23-4.43,6.23-7.29,0-6.07-4.1-16.55-12.3-16.55h-6.07c-3.56,0-10.69,6.22-10.69,8.73,0,1.75,.71,3.44,2.15,5.57-2.15,2.16-8.21,4.42-10.35,4.42-1.08,0-3.92-.46-3.92,4.17,0,3.58,3.2,5.83,6.78,7.6-1.44,8.56-10.34,9.41-10.34,18.32Z"/>
      <path class="cls-1" d="M1631.18,496.93c3.93,0,6.8-4.29,6.8-8.19-2.87,0-8.93,1.78-8.93,3.9,0,1.45,1.07,4.29,2.13,4.29Z"/>
      <path class="cls-1" d="M1642.91,507.25v2.87c0,.34-3.93,2.86-3.93,4.62,0,1.46,3.93,2.51,3.93,2.86v12.55h3.95c-.7,0-1.78-3.06,0-5.91,1.07,.71,3.22,1.49,6.06,1.49-1.06,2.86,0,3.43,0,6.64,0,2.84-3.55,4.59-3.55,7.44s2.49,2.79,5.69,2.79c2.86,0,4.64-1.77,8.21-1.77,1.06,0,2.14,.34,3.21,.34-.72,1.42-1.41,2.13-1.41,4.99,0,3.55-.95,4.28,9.65,3.91v5.36c0,3.57-10.72,6.76-17.13,6.76,0,3.94,2.3,5.71,2.3,10.36,0,5.33-10.24,5.69-10.24,11.05,0,.7,.92,1.78,1.64,1.78,1.78,0,1.36-1.78,3.49-1.78,3.93,0,5.31,4.27,9.96,4.27,2.5,0,4.98-1.42,6.41-3.57,0,.7,.7,1.79,.7,2.49,0,5-6.65,3.23-11.64,4.63-1.07,.36-11.99,11.79-11.99,13.21v-.25h11.49s2.13-6.29,5.71-6.29c2.5,0,3.92,.52,6.42,.52,5.35,0,14.99-4.83,18.56-4.83,2.13,0,9.96,0,14.25,0,4.27,0,1.88,.88,7.18-2.35v-2.48s-2.16-.38-5.74-1.42c2.86-4.64,12.12-7.84,12.12-14.27,0-3.56-2.87-6.76-7.15-6.76-2.86,0-1.97-.38-4.46,1.39l2.99-1.39c-1.42,.69-3.07,1.75-3.07,2.48v-2.48c0-.38,.65-1.45,.65-2.53,0-2.85-4.46-4.63-4.46-7.48,0-8.54-9.56-11.08-15.25-16.76-4.3-4.3-3.37-12.83-10.14-14.98-2.85-.71-4.71,.7-8.28-.35,.36-1.43,1.4-3.22,2.82-3.58,0-7.5,11.01-11.87,9.59-22.47h-21.03c-.72,0-1.09-1.05-1.09-2.12,1.09-5,8.93-4.95,8.93-9.92,0-.72-2.16-3.87-3.58-3.87h-10.32c-2.15,0-5.74,3.85-5.74,5.63s-1.41,3.71-1.41,6.59c-2.49,0-4.99,1.67-4.99,4.53,0,.69,1.07,1.89,1.79,2.25,0,.71-.72,3.77-1.44,3.77-.7,0-2.5-1.56-2.5-1.56h-5.71s3.23,2.56,8.53,3.61Z"/>
      <path class="cls-1" d="M1654.71,547.57c-2.13,1.07-2.49,2.49-2.49,4.28h3.93c0-1.79,.36-3.21,.36-4.28-.36,0-1.44,0-1.8,0Z"/>
      <path class="cls-1" d="M1562.34,384.23l.72-.72c0-9.98-13.19-7.47-13.19-17.81,0-1.07,1.08-2.51,2.14-3.24-3.21,0-5.35,1.81-8.57,1.81-3.54,0-6.41-.37-6.41-4.65-1.42,1.07-1.42,.71-3.93,0-.7,1.44-1.43,2.5-1.43,5.34-3.2-3.21-7.49,1.07-12.11,1.07-3.22,0-6.06-1.07-11.42-1.07,0,1.07-.36,2.51,0,3.57-1.43-.71-2.14-1.79-4.99-2.51l-8.57,2.16c-2.13,0-3.2-1.79-4.62-3.23-1.08,1.44-.73,2.16,0,4.63-1.79,.37-3.93,2.16-6.42,2.16s-5.72-4.01-5.35-6.5c-.37-2.16-1.79,.54-2.15-4.76h-2.86c-2.84,0-5.23,2.69-5.23,2.69v2.85c0-1.07-4.52-1.76-7.73-.7,.72,3.91,13.62,7.85,17.89,7.85,0,1.04,.22,2.14,1.3,2.85-3.92,1.42-13.28,3.2-18.64,3.2,3.59,3.56,9.6,0,15.31,1.43-.69,3.93-1.8,6.08-1.8,10.7-1.07,0-2.15,1.08-3.21,1.77,7.84,0,10.69,5,15.67,6.43,9.63,3.22,18.91,6.41,32.1,6.41,12.12,0,18.89-6.06,27.46-8.91,4.64-1.43,13.19-7.85,16.03-12.85Z"/>
      <path class="cls-1" d="M947.19,958.74c-2.5-1.07-4.29-6.06-8.2-7.14l-5.36-.35c-.35-.69,0-1.78,0-2.49-8.2,0-17.12-3.92-22.12-8.93-.7-.7-3.56-4.27-6.05-4.27-11.76,0-19.27-5.63-34.95-5.63-16.05,0-23.54,3.12-29.24,19.03h3.2c3.57-10.6,13.2-11.87,19.98-11.87,1.79,0,3.55-2.23,5.01-.8-1.09,1.08-1.46,2.07,.7,2.07h10.32c5.01,0,7.5,5.54,12.5,5.54,2.85,0,4.64-.95,7.48,.47,1.44,.71,1.08,3.26,3.93,3.26,1.07,5.38,5.94,5.02,11.3,7.52-.35,1.81,.92,3.23-4.39,3.23v2.15c5.3,0,13.3,2.51,21.5,2.51,4.29,0,11.88,0,14.38-4.29Z"/>
      <path class="cls-1" d="M859.1,940.23v2.5c-1.07,0-3.21,.69-3.21,3.2,0,.69,4.65,0,4.98,0,.72-1.81,.37-3.57,0-5.38l-1.05-.32h-.72Z"/>
      <path class="cls-1" d="M909.03,978.36c0,2.88,2.85,5.35,5.68,5.35,4.3,0,7.52-1.43,11.79-2.14-.37-1.43-1.07-2.5-3.22-3.22l.72,.72c-2.13-.72-7.14-2.86-11.4-2.86-1.44,0-3.57,.73-3.57,2.14Z"/>
      <path class="cls-1" d="M1021.36,977.66c0,3.58,4.64,3.92,8.91,3.92,2.15,0,4.64,0,5.71-2.15-1.07-2.12-9.62-3.93-10.69-3.93s-3.93,.37-3.93,2.16Z"/>
      <path class="cls-1" d="M947.89,976.22c0,2.14,2.15,5.36,4.28,5.72,0-1.07,.36-1.79,.36-2.86,1.79,1.07,1.79,0,4.28,0,4.29,0,12.83-1.06,16.05,1.07,1.79,1.1,1.08,4.64,4.29,4.64,3.91,0,3.56-6.43,8.2-6.43,1.77,0,1.42,.88,3.56,.88,2.5,0,3.93,1.54,6.43-3.76h13.19c-2.5,0-6.05-4.09-9.62-6.96l1.77,1.92c-6.4-3.23-8.56-9.07-19.97-9.07-3.92,0-6.06,1.55-10.7,1.55-3.22,0-5.36-2.44-8.56-2.44-1.07,0-2.87,1.46-2.87,2.54,0,2.13,2.52,3.93,4.64,3.93,0,2.84,.36,5.34,2.5,7.5-4.27,2.13-7.85,.35-16.04,.35-.36,.37-1.07,1.43-1.8,1.42Z"/>
      <path class="cls-1" d="M1076.64,1065.02c0,1.1,2.14,0,3.22,0,2.13,0,3.56-3.19,4.27-4.62v-2.52h-3.2c-2.15,0-4.29,3.58-4.29,7.14Z"/>
      <path class="cls-1" d="M1194.67,1166.33c-4.27,0-7.13,3.19-7.13,8.57,0,3.2,9.27,9.42,14.63,9.42,4.28,0,9.62-8.3,9.62-11.5,0-.72-1.07-3.28-2.49-3.28-1.79,0-5,4.28-5.72-.35-2.84,0-5.34-2.87-7.48-2.87,0,0-1.07,0-1.43,0Z"/>
      <path class="cls-1" d="M953.97,1648.76h5.05v-14.58c0-1.06,.49-1.79,.49-3.93,0-2.84-4.99-5.68-8.2-5.68-2.14,0-8.2,10.67-8.2,10.67v4.67c0,1.41,8.7,8.85,10.85,8.85Z"/>
      <path class="cls-1" d="M802.03,631.73c3.57-1.78,2.15-7.49,5.71-7.49,4.28,0,7.14,5.65,8.57,7.09,.71-1.45,.35-.45,.35-5.76h2.86c2.14,0,17.11,12.88,17.83,14.28,2.13,4.29,0,7.85,2.84,10.69,8.21,8.22,19.28,12.14,28.19,12.14h9.26c4.27,5.3,9.63,6.8,9.63,12.16,0,2.5-1.42,4.46-3.56,4.46-4.28,0-8.56-4.52-9.99-5.96-1.43,5.72-4.64,22.89-9.62,22.89-3.56-2.87-3.56-5.33-4.99-11.02-3.58,1.05-2.85,2.49-7.13,2.49,1.06-4.97,3.92-8.21,3.92-13.17,0-4.31-13.2-10.72-16.06-10.72-5.86,0,1.81,8.67-11.19,9.45-3.96,.24-2.16,11.04-2.16,15.53,0,0,0,7.12,0,11.4,0,4.62-3.48,15.34-8.84,15.34-3.92,0-9.05-3.21-9.05-7.14,0-9.27,2.42-27.47,8.49-35.31-3.57,0-5.22,3.73-8.78,5.87,.71-7.14,13.51-16.28,21.34-16.28h18.04v-5.98c-10.6,0-12.13-4.65-20.69-4.65-3.91,0-5.52,1.29-10.16,1.29-2.5,0-5.89,4.03-6.25-6.57h-7.13c1.43,0,3.94-1.64,3.94-6.62-5.36,1.06-11.79,8.97-15.69,8.97-3.22,0-3.58,5.18-9.64,5.18-2.86,0-3.92,1.73-5.35-1.5-2.49,.36-3.92,4.57-6.41,4.57h-5.36c8.22-15.9,18.19-15.68,27.83-22.09,4.62-1.43,5.34-1.78,9.26-3.56h0Zm86.61,75.99c-1.79,1.03-3.89-1.45-8.51-1.45-4.98,0-10.35-.37-13.54,2.84-1.44,1.43-1.8,3.58-5,3.58-2.14,0-4.28-2.49-5.34-4.28,0,3.56,1.42,8.91,4.99,8.91,7.3,0,19.17-5.5,27.4-9.59h0Zm4.39-6.78c-.2-.5-.39-1-.59-1.45,.2,.46,.4,.94,.59,1.45h0Zm1.72-8.24c7.85-2.49,24.61-6.77,33.53-6.77-.08,13.41-22.82,9.98-33.16,9.98-1.78,0-1.78,.36-4.29,.36,.38,.62,.8,1.47,1.23,2.41-.55-1.15-1.93-1.86-1.93-3.12,0-1.8,3.56-2.49,4.62-2.86h0Zm121.65-41.7c-.14-.78-.35-1.54-.54-2.31,.2,.77,.4,1.52,.54,2.31h0Zm.56,4.27c-.06-.69-.16-1.37-.25-2.06,.09,.69,.19,1.37,.25,2.06h0Zm.41,5.22c-.04-.69-.1-1.38-.15-2.08,.05,.7,.11,1.38,.15,2.08h0Zm.47,4.87c-.07-.55-.13-1.1-.19-1.66,.06,.56,.12,1.11,.19,1.66h0Zm.76,4.12c-.13-.53-.24-1.07-.35-1.61,.11,.54,.22,1.09,.35,1.61h0Zm-3.17-22.53c-.43-1.3-.95-2.57-1.63-3.76,.68,1.19,1.2,2.46,1.63,3.76h0Zm3.92,24.87c.17,.47,.33,.93,.54,1.38-.21-.44-.37-.91-.54-1.38h0Zm-128.47,34.79c1.31-.67,2.54-1.3,3.52-1.79-.29-.97-.61-1.9-.94-2.79,.33,.9,.65,1.83,.94,2.79-.99,.5-2.2,1.12-3.52,1.79h0Zm451.07,512.1c-4.98-1.41-8.19,.72-13.19-.69-5.7-1.79-16.75-11.76-19.98-17.12-3.91-1.77-9.98-4.28-16.75-5.72l-13.56,1.8c-7.13,0-8.55-6.87-16.02-6.87-3.23,0-4.65,2.73-7.87,2.73h-2.49s.37-4.49-.72-7.74c-.71-2.86-3.92-1.56-6.77-3.32-4.63-2.87-17.48-9.34-23.89-9.34-5.71,0-9.98,7.63-13.56,13.36-1.07,1.75-2.51,4.97-3.92,4.97-1.06,0-1.78-3.23-1.78-3.23h-8.56c-.72-10.6-2.5-7.05-6.08-8.83-1.77-.71-4.98-.66-4.98-4.24,0-10.68,10.33-14.42,16.04-21.56,0-3.56-4.64-3.64-6.42-7.21-1.79-3.92-6.42-15.1-6.42-19.38-6.06-1.45-13.55-13-19.27-13-.71,0,0,0,0,0v-1.22c-10.6,0-11.4-4.08-13.91-4.08h-9.26c-9.63,0-24.62-.63-27.11-10.62-1.78,0-4.63-.29-5.34-1.73-4.29-8.9-7.48-3.56-14.26-14.16h-9.99c-1.43,0,2.01-10.4-2.61-11.81-5.35-1.8-12.95-3.25-12.95-8.24v-2.84c0,.7,1.54,.35,2.96-.74,0,0-7.6-1.07-11.18-1.07-1.07,.71-9.15,.71-9.51,1.81-2.14,4.27-5.99,4.59-11.35,5.3-2.85,0-7.43-3.62-7.43-3.62h-19.25c-2.15,0-4.29-3.17-4.29-6.73-5.34-1.08-13.37-3.26-14.79-8.98l-6.25,1.79c0,4.26,5.36-1.98,6.77,8.63h-8.54c-3.23,0-8.92-.5-8.92,4.83,0,4.29,4.29,5.81,4.29,10.09,0,1.43-1.96,5.31-3.39,5.31-3.92,0-5.89-7.11-5.89-11.04,0-3.19,2.15-9.38,3.22-14.74,1.41,0,3.56-1.47,3.56-4.32,0-.36-1.44-4.3-3.21-4.3-4.64,0-5.7,5.31-10.36,6.75-8.91,2.83-14.62,4.26-23.16,7.11-4.64,1.41-7.85,2.48-9.64,8.21-.71,2.86-1.08,7.48-3.21,8.9-2.14,1.43-3.56,2.49-3.56,6.06-.73,0-.01,1.08-.01,1.79,0,.71,0,1.42,0,2.13,0,.71-3.56,.71-6.4,0-.54,.85-2.63,1.64-3.79,2.46,1.27-1.34,1.74-2.51,1.89-2.81-5.69-4.26-10.34-11.43-20.33-11.43-8.55,0-13.3,7.13-22.59,7.13-6.07,0-5.99-6.76-9.9-8.53-5.71-2.85-13.11-6.07-13.11-13.92v-21.76c5.3-3.58,5.3-12.46,5.3-15.7,0-1.79,0-3.57,0-5.33-5.3-1.43-10.12-7.51-18.68-7.51-12.49,0-22.85,2.15-34.62,2.15-2.15,0-5.02-1.44-5.02-3.92v-1.81c0-2.12,5.3-3.56,5.3-7.11v-18.51h0v3.89c5.3-3.58,7.05-6.06,7.05-11.75,0-6.79,8.85-13.21,8.85-18.18v-3.21s-7.61-.37-9.03-.74c-1.44-.7-4.34-1.07-7.55-1.07-9.64,0-21.59,3.57-21.59,13.9,0,5.38-6.2,9.99-7.62,14.28-.35,1.44-2.18,5.72-5.04,5.72-1.43,0-2.88-2.15-6.8-2.15-7.13,0-12.86,4.99-19.65,4.99-2.84,0-2.85-3.2-6.06-4.28-9.28-2.85-9.28-8.92-15.69-15.32-2.49-2.52-7.13-7.49-8.56-10.38-1.43-3.2,3.1-5.32,1.67-8.53-.71-1.45-.12-4.3-.12-7.15v-19.95c0-5.37,.83-7.85,.83-14.27,0-2.16-2.08-3.57-2.8-5.72l-.9-.86c.31,.04,.3,.09,.59,.13,0-1.04-1.96-2.49-1.96-3.56,0-10.71,4.54-20.33,12.4-23.17,3.57-1.44,6.73,1.06,9.58-1.77,4.28-4.29,9.26-13.21,19.59-13.21,3.93,0,6.06,3.56,9.98,3.56,2.15,0,3.2-2.84,5.34-2.84,7.13,0,15.7,12.13,25.67,7.13-4.27-2.83-1.06-6.03-.71-11.41-2.14,1.08-1.43,1.08-4.99,0,6.04-2.13,13.55-1.43,19.24-2.85,0,1.08,1.43,2.85,2.52,2.85,2.84,0,3.91-2.85,8.9-2.85,8.57,0,12.48,8.23,18.91,8.23,3.2,0,4.63-4.66,7.85-4.66,15.68,0,11.4,21.77,17.11,33.15,2.85,5.72,6.42,7.51,10.71,13.22,2.14,3.21,1.8,8.89,7.12,8.89,6.06,0,8.4-6.77,8.4-14.26,0-6.42-3.73-9.99-3.73-14.26v-1.78c0-11.42-10.53-14.99-10.53-26.75,0-25.92,21.08-32.69,37.78-42.14l-1.11-.66c2.15-2.12,1.73-3.21,5.99-4.62,2.85-.72,4.68-3.48,8.89-4.3,1.96-.37,3.81-2.51,4.88-3.92l-3.49-2.48v-2.85c5.3,0,4.11,.32,4.82-3.61-1.78-.35-3.14-.61-4.56-3.11,1.78,0,5.05-1.5,5.05-4.35v-2.15h-3.87c-2.13-5.3,0-2.5,0-6.07s-1.8-10.35-1.8-12.83c0,0,.36-3.01,1.07-4.83,.71,3.58,4.61,9.12,4.61,11.61v3.92c0,.74,.03,2.14,.74,2.14,1.08,0,7.86-12.46,7.86-14.61,0-2.85-2.67-3.92-3.38-6.79l1.7-1.76c.71,.69,1.38,2.84,2.44,2.84,2.5,0,9.26-12.49,9.97-15.32,0,0-3.21-2.5-3.21-4.28,0-1.08,1.07-2.16,2.14-2.51,1.06,0,2.13,.36,3.21,.36,4.98,0,8.55,1.11,13.54-.67-2.5-1.79-5.71,1.11-8.93,1.11h-3.57c7.16-5.3,20.75-3.6,27.87-8.95,1.44,1.43,7.95-1.1,13.25-2.19v-2.48s-4.68,2.48-5.39,2.48c-2.15,0-4.31-4.62-4.31-6.4-1.07-.35-1.8-2.14-1.8-3.22,0-13.53,11.93-17.45,17.66-23.17,3.56-1.77,3.82,0,8.11,0,4.99,0,8.86-2.15,11.37-6.07-.67-.84-2.48-1.79-2.95-2.74l-1.48-.82v.55h6.04c2.13,0,11.11,.62,14.33-1.51,3.2-2.16,3.23-7.18,8.6-7.55,0,4.99-.34,5.15,5.34,5.15-8.2,.71-21.02,6.31-21.02,14.16,0,3.2,4.99,8.88,7.14,8.88,2.84,0,9.47-9.61,16.58-11.75,1.8-.34,26.21-9.68,26.21-12.54,0-3.91-9.27-4.3-11.39-4.3-10.35,0-26.76-10-26.76-18.91,0-2.13,2.85-4.99,3.58-8.55-1.79,0-5.71-1.08-8.94-1.08,2.16-2.85,14.99-4.65,14.99-11.77,0-6.78-11.06-5.33-18.56-5.33-15.68,0-22.82,11.04-33.5,12.45,4.63-9.62,12.13-6.4,19.98-14.26,4.98-4.96,1.42-8.19,8.92-10.71,13.54-4.25,21.38-1.75,34.94-1.75,17.84,0,27.57,5.84,38.17-7.86,5.15-6.67,33.88-8.21,33.88-19.62,0-8.21-1.98-11.76-5.19-17.11-2.85,0-1.98-3.5-1.98-5.34v-4.3c-10.6,4.66-26.2,10.7-34.75,10.7-1.07,0-3.64-.7-4.01-1.41,7.14-3.93,26.74-6.64,28.87-13.42,.36-1.79-4.06-2.29-4.42-4.05-8.56,1.05-28.1-2.87-28.1-14.98v-1.09c-10.6,0-11.24-4.98-15.88-8.55,1.79-1.05,5.99-2.15,5.99-6.43,0-3.56-2.89-6.41-2.2-9.98-3.21-1.06-14.62-8.43-11.6-14.97,3.73-8.09-11.34-10-12.41-19.61-1.06,0-4.6-3.21-6.02-4.66-2.5,1.8-8.19,5-8.19,10.01,0,5.33-11.39,18.53-20.32,18.53-6.41,0-7.48-7.83-11.77-7.83-6.06,0-8.55-17.5-9.61-24.96-1.43-10.02-20.7-2.87-20.7-16.05-9.98-1.43-12.11-13.56-22.11-13.56-4.63,0-4.63,3.56-9.98,3.56-10.36,0-16.77-6.06-26.77-6.06-5.33,0-10.69,2.5-10.69,8.9,0,3.57,12.59,8.78,1.08,16.06-4.52,2.86,6.49,10.73,7.13,16.05,1.25,10.55-8.82,13.22-13.46,15.01,8.2,13.92,20.59,18.51,20.59,42.05,0,6.42-21.41,22.44-28.53,23.9,12.4,6.27,7.49,25.68,12.49,31.73-1.42,2.14-6.09,4.65-6.43,8.56-4.27,0-7.35,6.98-10.7,4.26-8.82-7.05-21.4-21.16-21.4-31.51,0-11.41,2.15-24.46-7.83-29.76h-23.19c-13.19,0-28.17-12.35-43.86-18.4-2.84-1.05-11.05-5.62-16.04-5.62-5.36,0-7.86,6.1-13.21,6.1,0-8.56-5.7-28.15-13.56-28.15-3.56,0-5.35,3.03-8.9,3.76,1.42-4.28,0-5.63,0-15.97,0-14.27,4.28-22.76,12.49-30.96,2.86-2.85,8.91-16.74,11.76-17.81,6.06-2.13,16.75,1.45,16.75-7.12,0-5.35-13.64-5.77-18.63-8.61,3.2,1.06-7.57-8.64,21.4,.26,7.5,2.3,2.95-10.01,7.24-10.01h7.84c8.56,0,8.23-4.09,13.53-8.38v-5.35c-10.6-2.86-18.87-2.17-24.23-12.78h6.42c4.62,5.3,9.26,8.69,16.04,8.69,5.71,0,16.06-7.22,16.06-11.5,0-1.42-5.35-7.73-2.51-7.73,7.86,0,10.7,7.2,15.7,7.2,3.21,0,5.36-2.83,11.77-2.83-1.78-2.14-.09-8.44,4.27-1.77,2.36,3.57,20.71-12.11,20.71-16.75,0-3.2-8.22-6.76-8.22-8.92,0-2.48-4.82-8.16,6.42-13.55,1.42-3.22,0-2.84,0-8.9-11.42,0-8.56-8.92-23.19-8.92-3.21-.38-5.7-2.5-8.91-2.5-4.28,0-8.91,2.85-8.91,7.14,0,4.64,5.34,6.4,5.34,9.62,0,3.57-8.21,3.57-10,7.15-2.84,6.06-1.89,10.82-7.03,17.4-8.03,10.27-18.63-6.36-18.63-10.29,0-4.62,6.06-3.56,6.06-8.9,0-2.49-10.35-12.5-13.21-12.5-10.34,0-3.2,15.35-14.24,15.35,0-6.06-.7-10.34-8.2-13.91,1.07-1.8,1.78-2.85,3.54-4.28-5.68-3.57-13.54,0-17.83-5.35,2.5-1.43,8.92-3.92,8.92-8.56,0-6.76-10.51-6.49-10.69-11.77-.37-11.11-8.2-18.21-22.11-18.53-6.79-.17-3.91,4.27-3.56,7.84-4.28,1.09-9.98,0-9.98,5.37,0,3.56,2.85,5.33,2.85,8.9s-4.64,3.22-4.64,8.21c0,11.8,24.27,4.64,24.27,16.75,0,2.16-2.86,10.7-2.86,10.7,2.5-1.42,4.64-2.13,7.49-3.57,4.64,14.64-18.91,7.5-18.91,24.97-11.69,3.16-2.49-8.56-5.34-12.48-1.08-1.79-10.69-4.27-16.05-4.27-6.42,0-8.91,3.93-8.91,11.42-6.06-.72-9.98,0-30.32,0-19.26,0-41.72-6.78-46.36-21.39-6.42,1.75-27.82,2.1-27.82,9.97,0,2.48,1.66,3.85,4.52,3.85,5.72,0,15.11-2.79,19.38-5.62,1.43,11.75-16.75,2.13-16.75,14.26,0,2.48,3.91,10.67,2.14,10.67-7.14,0-8.57-7.99-14.64-10.84l-5.35-1.63h-22.82c-7.14,0-11.79,1.98-19.62,2.32-14.12,.66-14.12-4.96-14.12-6.04,0-3.21,10.91-2.11,13.06-4.27-9.93-13.79-8.15-11.67-28.54-10.08-21.69,1.69-32.46-16.1-54.2-16.1-6.78,0-9.64,4.61-15.35,4.61-3.91,0-7.84-6.79-8.54-9.65-6.78,1.44-6.78,9.28-13.92,9.28s-16.4-16.05-18.54-16.05c-7.15,0-4.64,10.34-12.13,10.34-2.86,0-5.36-2.14-6.43-5-11.04,2.5-14.96,3.22-24.96,7.12-3.92,.73-13.27,7.57-16.4,4.65-9.34-8.71-7.7,2.38-11.06,2.48-23.23,.83-7.12,9.31-10.33,9.31-8.92,0-24.93-1.79-39.58-10.71-.62-.36-5.27-3.56-5.27-4.65-2.49,1.46,.79,.73-4.51,0v.37c-5.3-2.86-11.89-7.15-22.24-7.15-6.41,0-10.22,1.46-16.62,1.46-11.07,0-33.03,5.95-40.18-9.95h-27.46c-5,0-6.43,0-10.7-5.3h-17.81c-3.23,0-4.31-2.01-8.23-3.43-1.78,2.84-5.34,5.39-8.93,4.68,1.09-1.78,1.44-2.46,3.22-4.6-4.63-1.44-6.43-5.34-11.05-5.34-6.07,0-9.63,7.84-15.35,9.98-4.99,1.79-8.19-2.76-13.19-1.33-18.88,6.06-34.94,26.54-45.64,31.84H16.04c-.36,0-5.34,12.03-5.34,12.03,0,2.47,14.62,6.36,18.89,8.88,3.56,2.11,7.85,13.34,10.7,14.75,10.35,4.99,17.84,5.96,21.39,17.41-4.27,1.04-4.99,1.43-9.98,1.43-7.49,0-13.21,3.81-13.21-6.79h-6.4c-8.56,5.3-23.2,9.03-32.11,14.38,1.78,3.56,4.98,5.06,10.71,5.06-.36,1.08-1.08,1.91-1.08,2.98,0,3.21,4.28,4.09,4.64,9.39h18.88c5.35-5.3,7.86,2.77,14.98,2.77,7.5,0,12.05-5.94,17.77-5.94,2.13,0-2.83-.23,7.77,.13v5.36c-10.6-1.44-4.21-1.79-7.77,.34,.35,1.07,4.85,6.06,4.85,8.55,0,4.64-24.85,14.27-28.07,14.27-7.48,0-27.04,8.91-27.04,19.62,0,5.71,11.26,7.48,14.11,15.32-1.78,0-3.64,1.09-5.43,1.09,2.51,3.2,19.23,16.39,23.85,16.39,1.44,0,4.08-6.05,6.94-6.05,3.21,0,2.65,4.28,2.65,5.34v7.15c0,2.84,1.6,6.11,3.74,6.11,1.44,0,3.39-5.64,5.54-5.64h4.28s-.36-.43,.35-2.56c6.07,4.63,8.57,8.16,17.12,11.37,.35-2.5,1.43-2.87,2.48-5.7,3.58,1.07,5.35,2.18,9.65,2.18,5.34,0,7.84-5.29,13.18-5.29h5.37c-8.57,10.6-8.57,17.04-16.76,22.39-8.56,5.71-22.47,12.27-28.54,20.12-4.27,5.35-11.04,2.05-17.1,5.61-3.93,2.14-7.13,9.41-11.42,11.89-6.06,3.58-12.84,.77-17.12,7.56,14.98,4.28,22.11-10.67,34.94-12.8,10.35-1.45,23.18-5.34,28.53-10.68,5.72-5.75,17.84-9.29,23.19-16.07,2.84-3.56,5.49-7.11,10.14-8.9,8.19-3.2,17.26-6.07,17.26-14.27v-5.33c0-11.77,21.11-31.33,29.65-31.33,1.78,0,1.08,0,4.29,0,0,0-.37,2.47-.37,3.53-10.33,3.21-15.69,9.28-15.69,17.12,0,1.77-1.41,1.77,.37,4.25-.71,.38-2.85,.72-2.85,2.87,0,1.41,2.13,2.49,3.57,2.49,8.19,0,31.02-12.86,35.64-19.98-1.79-1.43-2.48-2.51-3.56-4.99,3.21-1.8,10.35-4.5,14.62-6.31,6.06,12.51,21.75,16.91,33.54,16.91h19.6c10.7,5.3,22.82,6.63,32.1,13.44,4.27,3.21,9.26,14,16.76,14,2.86,0,4.27-3.33,5.36-6.18,2.84,2.84,5.34,5.44,10.69,5.44,1.43-2.49,4.63,.78,6.42,2.57-1.06,1.78-3.56,3.24-3.56,7.52,0,2.15,3.85,5.37,5.29,5.37,4.65,0,4.29-4.28,9.59-4.64v4.65c0,2.84-5.32,3.2-5.32,6.03,0,2.15,.83,5.35,5.81,5.35,6.44,0,10.11,0,10.11,5.35v5.36c0,3.92,9.55,10.71,15.61,10.71,1.79,0,2.1-.37,3.89-.37,0,1.78,2.28,2.85,2.28,4.99,0,4.64-1.35,14.26,3.64,15.7,2.86,.7,5.75,.7,7.91,2.85,3.19,3.2-.7,7.85,3.58,10.7,0,0,9.3,5.69,9.63,6.77,2.51,8.2,3.23,17.82,15.34,17.82,1.78,7.15,14.26,2.5,17.12,11.76,1.07,3.57,9.99,4.27,13.55,7.84,.71,.72,2.51,1.48,3.93,2.19,1.42,3.55,4.65,4.62,4.65,8.17,0,3.2-3.24,7.48-5.01,9.64-1.78-3.22-4.99-6.08-10.34-6.08-1.43,0-5.36,.36-5.36,2.51,0,7.83,8.92,11.04,8.92,18.86,0,11.07-9.38,31.3-6.07,39.98,3.43,8.95-.35,22.12,3.56,29.94-2.12,1.43-5.33,3.71-3.56,6.77,6.11,10.59,13.91,26.39,21.41,27.47-1.8,14.62,8.21,18.9,13.19,31.39,1.07,2.84,0,6.91,2.86,7.99,12.83,4.98,31.02,18,36.39,23.3h-3.38v2.2c0,8.22,7.03,10.36,10.24,16.76,2.12,4.3,2.54,14.21,6.77,16.91,6.24,4.04,12.44,11.65,17.72,19.17,3.12,4.46-5.16,3.15-6.92,3.15,3.56,5.37,13.28,4.27,18.28,9.28,3.57,3.57,6.92,7.49,12.23,11.4v9.27c0,1.79-.38,1.79,1.77,3.22,3.92,2.5,6.47,10.94,12.87,10.94,.37,1.45,4.68,7.61,5.37,7.61,1.09,0,2.27-3.58,2.27-5.39,0-2.84-4.39-8.88-7.24-6.03-6.41-4.29-8.61-13.54-11.46-22.13-2.49-7.46-9.66-11.39-12.14-19.6-1.8-6.05-2.51-9.63-7.52-14.61-3.57-3.57-8.24-3.58-10.74-8.94-2.86-6.04-6.38-10.67-6.38-18.16,0-1.07-.38-3.23,.71-4.64,4.63,4.64,10.33,4.28,16.4,7.12,2.84,1.42,2.13,9.29,5.35,12.48,3.21,3.21,2.15,9.29,5.34,12.5,3.93,3.94,7.49,7.85,12.13,12.48,1.07-1.05,.72-.71,3.91,0,0,8.58,11.07,9.28,14.29,15.69,1.77,3.93-.73,7.5,2.13,10.35,3.56,3.55,9.29,4.99,12.85,8.55,7.84,7.83,19.98,18.18,24.24,31.04,.72,2.48,3.56,3.57,3.56,8.21,0,3.89-3.56,6.06-3.56,9.97,0,3.21,2.14,7.13,5.35,7.13,1.08,4.63,12.11,7.13,16.42,11.41,1.06,1.07,1.78,1.43,3.91,2.5,4.64,2.14,7.13,1.41,11.78,3.56,5,2.5,6.05,6.8,11.06,8.2,3.91,1.07,6.41-1.06,10.34,.72,3.55,1.78,15.68,10.34,19.95,10.34,2.87,0,5.36-.72,8.22,.71,1.43,.73,4.27,3.2,7.13,3.2,6.08,0,7.12-5.5,13.54-5.5,2.86,0,5-.83,7.85,4.47h2.14c9.63,5.3,11.06,11.21,22.12,16.56,7.13,3.58,12.13,.98,18.91,4.22,4.62,2.12,8.18,4.15,14.96,4.15,2.49,0,4.27-3.71,6.79-3.71h2.12c2.14,10.6,8.2,13.27,13.9,18.99,1.79,1.77,3.57,1.58,4.66,5.13,1.77,5.36-1.79,12.99,3.56,12.99h3.56c-.72,0-.72-.44,0-1.52,.35,0,12.47,8.31,13.56,10.43,1.41,2.87,1.41,6.85,6.42,7.92,0,.71,1.06,2.35,1.77,2.35,2.49,0,8.2-2.04,10.7,.46,2.85,2.86,6.42,9.71,12.13,9.71,2.85,0,4.63-1.77,5.34-5.36-.71-.37-2.86-1.76-2.86-3.19,0-2.15,9.99-9.28,12.5-9.28,3.91,0,4.98,4.64,8.91,6.43-.72,1.42-2.14,2.13-2.14,3.6,0,1.04,3.29,2.04,4,2.74,.14,.07,.47-.11,.87-.38-.35,.69-.6,1.44-.6,2.27,0,6.4,6.43,5.33,6.43,12.84,0,3.56-1.74,4.94-1.74,9.25,0,2.85,2.18,5.01,2.18,7.85v1.8l-1.47,2.83c0,1.08,1.75,2.87,3.55,3.59-2.15,9.62-11.43,7.13-15.36,14.96-2.87,5.73-5.37,15.34-14.99,15.34,1.52,15.71-7.48,14.28-7.48,22.46,0,5,.7,12.14,5.69,12.14,2.5,0,2.15-1.79,5.34,.35-1.41,5.72-7.84,7.15-11.04,12.49-1.43,1.43-3.92,6.45-3.92,10.71,0,6.44,4.98,13.54,8.92,17.45,1.41,1.44,4.29,.71,5.34,2.89,1.08,2.47,1.79,7.47,4.28,9.97,1.07,1.05,3.56,.36,4.63,2.49,3.21,6.77,5.35,11.42,7.85,19.6,2.49,7.84,9.63,14.27,12.48,22.82,1.43,5.02,6.77,7.87,6.77,13.57,0,4.27-1.42,8.21,1.44,11.04,6.42,6.42,11.4,11.44,21.4,14.64,4.97,1.43,7.13,2.85,11.41,7.13,3.92,3.92,7.84,3.2,13.2,5.69,6.41,3.24,12.12,8.58,15.33,17.13,1.09,3.9,3.47,24.96,3.47,28.56,0,5.69-2.62,15.29-2.62,20.33v31.36c0,12.11-10.06,21.03-10.06,34.59,0,5.7-4.85,10.69-2.69,17.12l-.12,26.74c-2.14,8.56-2.38,14.6-4.87,22.81-.34,1.44-2.24,1.11-3.32,2.49-1.78,2.5-2.55,7.52-3.98,10.02-3.21,4.97-8.23,13.2-8.23,21.39,0,2.5,.34,12.49,1.78,12.49,0,0,2.13,1.76,2.13,3.93,0,1.06-1.08,2.13-3.58,2.13-1.07,6.4-3.56,9.26-3.56,16.05,0,3.93,2.14,12.13,5,12.13,2.49,0,1.09-2.86,3.56-3.93,1.08-.34,1.44,0,1.44,0v5.38l-10,52.76c-5.34,0-1.95-7.11-8.38-7.11-1.77,0-2.32,3.26-2.32,3.26h-5.81v4.93c0,3.91,7.71,9.63,7.71,12.48,0,5.69-7.98,8.2-7.98,14.62,0,6.04,5.57,18.54,5.57,26.37v4.99c0,7.5,10.76,6.06,10.76,14.62,0,2.14-.84,4.29-1.92,6.09,1.08,.7,2.07,1.42,3.14,1.78-.38,3.19-6.62,2.86-6.62,6.06,0,.74,2.2,2.47,3.26,3.59,4.64,4.63,7.54,10.37,17.52,10.37,.35,1.79,1.11,5.43,3.97,5.43h6.77c0,5.3,7.85,4.55,13.2,6.34,5.71,1.8,2.85,9.56,11.06,9.56h17.47c3.2,0,12.12-6.41,17.47-6.41,2.15,0,4.27,1.22,5.69-.9-9.61-4.65-19.25-7.75-27.09-15.61-4.65-4.63-4.29-21-10.7-24.56-2.14-.36-5.36-4.61-5.36-8.18,0-6.77,1.8-11.74,6.08-16.04,3.2-3.2,8.89-1.05,11.39-6.04,2.15-4.65,1.09-9.29,3.94-12.14,4.98-4.96,13.89-6.04,13.89-16.02,0-11.07-16.03-6.07-16.03-19.99,0-6.06,4.99-11.06,10.69-12.48,2.5-.36,8.91-.72,9.64-4.63,2.13-8.92,2.13-15.33,8.55-21.76-1.78-.7-3.92-1.43-3.92-5.36,3.57,0,4.99,3.22,9.27,3.22,.71,0,3.56-2.49,3.56-4.62,0-1.8-1.78-2.15-3.21-3.59-1.07,.35-3.2,2.5-5,2.5-3.2,0-7.49-9.27-7.49-14.27,0-1.78,1.07-4.28,3.57-4.28,7.13,0,8.28,5,15.75,5,2.49,0,7.92-2.5,7.92-4.26,0-.88,0-2.44,0-3.57,5.3-5.02-.77-15.72,3.84-20.33,3.23-3.24,15.14,.68,20.84-1.09,8.56-2.84,16.12-1.09,22.19-7.12,3.56-3.57,6.12-5.83,9.35-10.83,1.76-2.86,1.76-5.21,1.76-9.5,0-3.91-5.69-3.91-6.77-7.85-1.43-4.26-1.43-8.22-4.27-11.04-1.08-1.1-6.42-2.86-6.42-6.07,0-1.07,1.8-1.78,2.86-1.78,5.34,0,9.99,4.27,14.98,4.27,2.51,0,10.46,3.9,16.18,3.9,16.39,0,19.12-17.81,26.26-28.52,6.05-9.26,14.11-10.33,20.54-19.94,2.85-4.66,5.9-7.13,5.9-11.78v.37c5.3-7.5,5.3-13.55,10.6-17.14v-16.76c0-6.76,.2-11.76,4.84-16.39,2.84-2.87,7.94-2.87,10.79-7.5,6.41-9.98,15.56-4.97,24.12-13.56,1.08-1.06,1.54-2.84,3.68-3.91,5.35-2.5,10.77-2.15,17.53-2.15,6.06,0,13.59-4.99,15.71-9.27,.73-1.42,.38-5.72,1.82-7.83,5.34-7.14,7.13-10.72,12.46-18.92,.72-1.44,1.81-8.56,1.81-12.13,0-2.87,3.2-6.42,4.63-8.19,.36-1.09,1.8-2.53,1.8-4.3,0-4.62,2.43-10.58,2.43-16.98,0-8.58-5.29-20.1,.05-25.45,3.56-3.57,7.49-4.28,11.07-9.62,2.13-3.2,3.69-4.09,5.82-7.29,9.62-14.59,24.11-21.6,24.11-47.99,0-7.46-1.77-14.95-8.93-17.12Z"/>
      <path class="cls-1" d="M905.83,907.05c0,2.84,0,6.76,3.55,6.76,.72,0,1.78-1.08,1.78-1.79,0-2.5-1.07-4.62-3.91-4.98-.36,0-1.42-.35-1.42,0Z"/>
      <path class="cls-1" d="M905.46,886.71c-1.79,0-4.27,1.43-5,2.87,2.14,0,5.7,.36,9.28,0-.71-1.08-1.78-2.87-4.28-2.87Z"/>
      <path class="cls-1" d="M916.51,890.98c-.35,1.07,.72,3.22,1.77,2.86l-1.77-2.86Z"/>
      <path class="cls-1" d="M959.67,947.68v-3.2c-1.43,2.14-4.28,3.93-7.14,3.2v2.16c0,.34,1.08,0,1.44,0,1.78,0,4.27-.71,5.7-2.16Z"/>
      <path class="cls-1" d="M356.62,545.07c1.78,0,2.84-1.07,2.84-3.56,0-7.85-9.62-8.94-8.54-18.55-7.51-1.45-9.28-1.45-9.28,7.14,4.29-2.86,2.14-1.09,7.85,0-1.07,1.77,0,4.62,0,7.13,0,.35,3.93,7.84,7.13,7.84Z"/>
      <path class="cls-1" d="M330.94,509.39c-.7,.38-3.56,1.07-3.56,0-1.78-5.71,0-5.71,0-14.97-4.98,2.86-1.78,0-8.19,0-1.43,0-4.28,.74-4.28,3.58,0,5.34,4.28,9.97,9.62,10.7,0,5.69,1.43,9.97,5.71,14.26,3.58-3.56,0-8.57,.7-13.57Z"/>
      <path class="cls-1" d="M660.82,304.36c6.43,0,7.83,1.4,14.27-2.85-6.77-5.35-36.72-13.21-36.72-24.6,0-9.29-9.63-17.5-9.63-30.33,0-3.2,7.84-6.42,7.84-11.77s-6.06-7.85-12.5-7.85c-5.69,0-10.68,2.5-10.68,6.08,0,1.08,0,2.46,.34,3.55-5.71,2.85-3.56,0-9.99,0-2.84,0-6.42,1.79-6.42,4.66,0,3.21,5.36,19.96,8.22,24.61-1.79,1.41-1.79,2.84-4.63,2.84-6.43,0-3.93-9.72-6.07-14.02-1.79-3.91-6.78-5.5-11.78-10.8h-7.84c.71,5.3,1.42,4.03,1.79,7.25-3.93,1.07-6.79,2.18-10.7,2.88-2.51-6.41-6.06-10.49-16.05-10.49-5.7,0-8.21,4.76-11.06,6.52-1.41-2.13-1.07-12.41-6.07-12.41-12.82,0-45.29,12.84-45.29,30.33,0,1.77,6.78,7.15,10.7,7.15,4.64,0,6.78-1.08,12.48,.37-3.92,2.48-14.28,.74-14.28,8.59,0,9.98,19.63,7.52,27.48,7.52h18.9c3.55,0,6.41,1.04,8.92,2.46-4.29,.36-6.41,.17-11.77,.17-14.98,0-26.04,1.49-34.6,7.93,2.51,4.27,8.92,12.34,16.77,12.34,4.99,0,15.68-1.97,19.6,.9,4.29,3.19,.35,8.02,6.44,8.02h32.07c7.5-5.3,16.41-1.68,25.68-6.31,5.35-2.5,2.85-6.01,9.28-6.01,10.34,0,15.33,10.9,29.25,10.9,8.92,0,17.11,.45,20.32-6.32-1.43-1.07-3.21-2.09-3.57-4.94-1.43,0-5.34,.03-5.34-2.83,0-2.5,1.79-3.54,4.63-3.54Z"/>
      <path class="cls-1" d="M436.16,269.75c1.06,1.79,3.55,7.16,5.33,7.16s2.86,3.55,5.37,3.55c2.84,0,27.45-8.92,27.45-11.77,0-8.21,15.69-23.18,26.75-26.75,3.56-1.07,22.46-3.92,22.46-7.83,0-8.22-17.48-15.35-24.96-15.35-4.62,0-8.92,4.29-12.13,1.08-7.85-.73-11.41-5.01-19.25-7.14-6.42-1.79-9.98,2.5-14.26,2.5-8.57,0-12.49-3.58-21.41,0,.36,3.91,5.34,9.62,5.34,12.48,0,12.85-17.82,22.81-17.82,34.94,0,4.29,14.27,3.23,17.13,7.13Z"/>
      <path class="cls-1" d="M533.14,183.81c-1.21-.12-3.33-.46-5.63-.83,1.81,.19,3.69,.42,5.63,.83h0Zm-9.76-7.79c-.33,0-.56-.06-.92-.06-2.86,0-5.71,1.8-7.13,3.93,1.17,.75,2.4,.73,3.68,1.13-.89-.14-1.4-.78-1.68-.78h-8.93v6.41c0,.5,3.91,1.01,5.27,1.51-1.21-.22-1.81-.43-3.29-.43-3.56,0-5.02,2.84-8.58,3.58,1.42,2.48,.17,1.76,.17,5.32,0,2.87,2.57,5.38,5.42,5.38,2.51,0,7.89,2.48,12.53,2.48,4.28,0,8.93-1.78,15-2.48,0-2.15,1.79-4.29,3.94-4.65,.72,3.56,3.92,5.35,6.06,8.22-4.63,0-9.98-1.09-9.98,4.25,0,2.15,5.7,5.37,9.98,5.37,8.92,0,16.05-2.5,23.19-5.37,1.07-.32,23.88-5.34,23.88-6.06,0-1.06,21.06,1.44,23.19,.72,3.22-1.07,11.78-11.76,11.78-16.75,0-4.27-3.93-8.91-8.22-8.91-4.63,0-6.41,4.27-9.63,4.27-6.76,0-13.54-7.84-13.54-13.19,0-.72-.36-1.78,0-4.62-2.5,0-4.64-1.09-6.78-2.51-3.55,2.85-13.94,5.7-13.94,11.43,0,3.2,7.79,4.96,7.79,5.33v4.63s-2.09,.74-2.44,1.43c1.43,.71,3.76,1.07,7.69,1.07-1.41,3.22-2.93,5.91-7.58,5.91-15.68,0-22.89-12.32-33.6-12.32h-8.19c-.36-5.3-4.64-6.61-6.07-6.61-3.2,0-5.36-1.68-11.76-.63,0,1.77,1.12,2.29,2.7,3.01Z"/>
      <path class="cls-1" d="M484.29,189.52c0,2.49,3.2,4.28,6.08,4.28,4.62,0,9.97-7.5,10.69-12.47-3.56-.36-16.76,2.48-16.76,8.19Z"/>
      <path class="cls-1" d="M534.23,174.95h5.98v-10.6h-10.62s2.85,10.6,4.64,10.6Z"/>
      <path class="cls-1" d="M458.26,181.33c3.55,0,5.7,2.14,9.99,0,.71,1.4,3.21,5.33,6.06,5.33,3.92,0,6.77-3.93,7.49-7.83,6.05,.71,11.4-4.99,12.13-11.06,3.2,1.78,2.83,10,8.9,10l15.33-11.42c0-2.85-2.49-3.57-2.84-7.13,2.49-.73,4.63-3.2,4.63-5.72,0-6.41-21.4-.7-21.4-.7-3.21-.36-3.57-.71-6.42-.71-9.98,0-11.76,9.26-18.54,13.2-6.05,3.54-11.41,4.27-17.12,7.12-1.43,.73-7.84,5.71-7.84,6.43,0,1.07,2.86,2.85,3.56,5.34,2.85-.36,3.92-2.84,6.07-2.84Z"/>
      <path class="cls-1" d="M559.89,132.54h15.35c4.27,0,6.77-1.29,9.62-2.72-1.41-4.62-7.5-8.48-14.96-8.48-4.64,0-26.05,8.06-26.05,12.7,2.84-.38,4.27-3.58,7.15-3.58,3.56,0,4.63,2.09,8.9,2.09Z"/>
      <path class="cls-1" d="M574.17,136.04c-7.49,0-29.25,.68-29.25,8.91,0,3.22,6.08,11.9,11.41,11.9,7.84,0,19.61-3.1,18.91-8.4h-9.98c5.34,0,11.4-3.35,15.32-6.56-1.07-1.41-2.48-5.84-6.4-5.84Z"/>
      <path class="cls-1" d="M534.93,147.43c2.49,0,3.57-2.12,4.99-4.27-2.13-1.06-12.14-9.99-12.14-1.06,0,1.77,3.93,5.34,7.14,5.34Z"/>
      <path class="cls-1" d="M712.17,250.13c0-3.55,1.07-.35,1.07-5.32,0-3.93-10.34-.73-13.2-.36,2.49-3.21,11.41-5.93,11.41-13.08,0-1.77-2.51-3.41-3.56-3.41h-14.27c-7.86,0-15.7-1.57-21.4,4.13-.35,1.09-4.04,1.71-4.04,2.78,0,4.64,4.55,3.87,9.85,4.56v9.73s1.33,0-2.25,0c-6.05,0-13.66-4.36-13.66-4.36v6.05c5.3,10.34,20.2,8.92,30.19,18.89,2.14,2.15,2.26,6.07,7.26,6.07,3.2,0,3.62-4.28,6.82-5.36,11.4-4.27,12.41,.94,14.12-18.52-2.14-.72-6.93-1.45-8.35-1.81Z"/>
      <path class="cls-1" d="M641.92,174.95h-4.29s1.81,.03,2.51,1.13l.79-3.69v6.43c0,2.14,4.07,4.45,7.62,3.38l-.23,3.34h5.37s1.78,4.48,4.29,4.48c7.12,0,19.6-3.47,26.02-3.47,1.43,0,3.23,.41,4.3,1.13-2.14,2.13-8.91,2.16-8.91,5.36-.36,1.06-.36,2.52,0,3.57-1.44,.71-2.5,2.16-2.5,3.57,0,3.22,9.27,1.82,11.42,1.82,1.06,0,8.91,0,14.26-1.81-1.43-10,2.86-14.27,2.86-22.45,0-5.37-.73-8.93-7.13-8.93-2.86,0-4.28,2.87-7.14,2.87-6.76,0-10.32-3.57-16.04-3.57-2.5,0-5.48-.71-7.98,.36,1.42,5,5.64,5,10.94,5v7.85c-5.3,0-10.6-7.85-15.9-7.85v4.28c0,1.77,3.98,7.33,6.82,9.12-11.04,3.2-16.7-11.93-27.03-11.93Z"/>
      <path class="cls-1" d="M697.19,315.06c-1.43,.36-7.85-1.08-7.85,1.77,0,1.09,26.4,10.71,31.03,10.71,3.91,0,5.36-3.58,8.92-5.7-2.15-5.01-16.76-18.2-22.11-18.2-7.13,0-5.71,9.99-9.99,11.42Z"/>
      <path class="cls-1" d="M745.67,219.84c-7.5,0-9.32,6.1-9.32,6.45,0,1.08-5.3,6.97,0,6.97-5.3,0-10.6,0-10.6,0v1.54c0,7.14,.88,9.98,6.58,15.7-.35,1.76,.52,3.96,.52,9.26h7.13c4.28,0,7.12-5.3,8.21-10.6h-4.65c2.15-5.3,2.15-1.63,10-1.63,10.69,0,15.68-7.43,20.33-13.85,0,0,6.42-4.44,6.42-5.16,0-1.77-.2-2.74,.16-4.52-12.85,0-22.66-4.16-34.78-4.16Z"/>
      <path class="cls-1" d="M633,158.13c2.51,0,4.63-1.76,4.99-4.27-7.47-2.5-8.19-10-17.47-10,0,4.64,8.54,14.27,12.48,14.27Z"/>
      <path class="cls-1" d="M631.21,201.64c2.87-.36,3.58,.38,7.16,.38,2.11,0,5.34-.38,5.34-4.65,0-2.5-1.79-3.56-2.49-5.35-5.01,1.79-8.57,3.58-10.01,9.63Z"/>
      <path class="cls-1" d="M631.21,116.41c-.35,1.45-1.41,2.85-2.47,3.57,2.84,2.14,4.64,0,12.48,0-.74,1.06-.74,3.2,0,4.28-4.3,1.42-7.5,1.07-10.71,4.28,3.21,3.2,4.63,2.86,9.62,2.86,5.35,0,9.99-1.81,11.77,1.42,6.41-.74,10.34,1.42,16.74,1.42,8.22,0,7.51,8.91,16.06,8.91,2.84,0,6.41-1.06,6.41-4.63,0-3.92-7.14-6.78-9.98-9.63,.71-1.07,2.14-2.51,2.85-3.56-1.78-1.79-5.7-8.2-10.68-8.2-2.15,0-3.24,2.85-5.36,2.85-3.91,0-3.57-8.22-10.71-8.22-2.84,0-4.27,2.85-7.11,2.85-4.29,0-6.06-6.4-13.55-6.4-4.28,0-7.14,2.14-11.42,2.85,0,4.27,1.07,5.36,6.05,5.35Z"/>
      <path class="cls-1" d="M669.01,141.38c-3.2-1.08-4.27-2.85-8.2-2.85-1.42,0-9.63,5.33-3.21,5.33,5.36,0,9.64,0,11.41-2.49Z"/>
      <path class="cls-1" d="M794.54,206.76h4.3c-.73,5.3,10.34,5.3,17.82,5.3h28.53c3.2,0,3.92-3.59,8.91-4.31,.72,2.48,2.49,5.5,7.15,5.5,12.48,0,28.53,.08,29.59-12.41,0,0-2.13,.4-4.64-.3,.41-1.37,1.03-2.39,1.73-3.24,1.05-.1,2.33-.36,2.91-.66-4.98-9.26-14.26-9.97-28.53-9.97-18.56,0-24.96,8.93-44.58,8.93-8.92,0-16.04-2.15-24.61-4.27-1.41,1.05-5.7,3.2-5.7-1.8,0-1.06,1.8-.69,2.5-1.42-4.99-3.92-13.91-2.55-16.04-7.86h14.25c-3.2,0-19.61,0-16.76-5.3h-6.43c-1.41,0-3.56-.19-7.14-.19-12.1,0-14.96-14.02-31.01-14.02-4.28,0-10.69-.77-10.69,4.58,0,3.22,21.74,12.1,25.66,12.1,2.87,0,5.01-1.63,7.15-3.74,6.06,6.05,7.84,11.67,14.27,18.09-1.43,.7-4.28,3.15-4.28,5.65,0,7.12,17.82,15.73,25.66,15.73,3.22,0,8.56-6.38,9.98-6.38Z"/>
      <path class="cls-1" d="M748.91,200.21c0-4.62-8.57-11.75-14.99-11.75-8.19,0-6.78,8.18-10.69,8.18-.71,0-4.64,1.8-4.64,5.38,0,0,20.68,9.61,23.18,9.61,5.01,0,7.15-5.34,7.15-11.41Z"/>
      <path class="cls-1" d="M746.96,148.5v-5.36s1.03,0-2.89,0c-6.78,0-18.98,1.09-22.55,4.66,0,0,19.5,4.1,21.28,4.1,3.22,0,4.16-1.61,4.16-3.4Z"/>
      <path class="cls-1" d="M712.53,136.04c-1.08,.35-3.58,1.78-3.58,3.56,0,4.27,12.5,2.86,24.97,0-1.06-3.92,0-6.42,0-8.92,0-7.49-12.48,.37-12.48-8.21-3.93,0-11.4-2.48-12.5-5.33-3.55,.35-8.19,1.78-8.19,5.33,0,7.14,7.49,9.28,11.77,13.57Z"/>
      <path class="cls-1" d="M694.69,100.73h4.55v-7.49s-7.09-.18-11.72,.17c0,4.27,5.04,7.31,7.17,7.31Z"/>
      <path class="cls-1" d="M739.99,96.11c-3.21,0-8.9-.68-10.7-.68h-5.35c1.07,5.3,8.56,8.51,20.69,8.51-2.14,2.84-4.64,1.79-8.21,3.2,0,2.16,.36,2.85,2.85,2.85,2.87,0,3.94-1.78,7.51-3.19,1.07,2.11,1.43,4.43,4.99,4.43,4.27,0,5.34-2.94,10.69-2.94s9.27,1.38,14.62,2.81c-4.97,1.06-27.1,.33-27.1,7.1,0,5.35,10,8.92,16.05,8.92-1.07,1.08-2.15,2.11-4.64,2.48,.71,5,8.57,6.42,14.26,6.42,5.36,0,7.38-1.79,7.38-8.21,3.21,2.12,11.65,6.78,11.65,6.42v-7.01h8.78c-1.06,0-2.49-2.38-4.62-5.96,1.78-1.76,2.49-2.95,4.27-4.73,1.07,3.92,1.07,7.43,5.69,7.43,4.65,0,9.63-10.56,16.76-11.28,2.86-.36,6.8,.43,8.21-1.71,1.07-1.43,.37-.34,.37-2.84-4.64-.35-13.92-2.12-17.48-2.12h-6.07c0-5.3,2.5-5.33,2.5-7.81s-4.28-3.84-4.28-6.34c0-4.27,.37-7.05-4.63-7.05-1.06,0-2.49,0-3.56,0l-.64,1.99v8.61h-1.86c-3.21-10.6-1.07-9.83-6.41-11.96-5.35-2.13-8.91,.42-14.27-1.73-5.71-2.13-4.27-12.97-11.42-15.82-6.42-2.52-13.56-3.47-22.47-4.19,.35,4.98,6.42,7.19,10.7,7.19h-6.05c-6.44,0-9.27,.76-13.57,3.23,0,.36,3.21,5.73,4.64,5.73,2.16,0,6.44-2.14,9.99,0-1.05,1.09-1.78,3.58-3.91,3.58-2.85,0-4.65-2.48-9.64-2.48-3.2,0-8.19-.37-8.19,3.56s11.04,7.86,15.69,9.27c0,0-1.78,4.29-3.21,4.29Z"/>
      <path class="cls-1" d="M870.16,399.93c-1.79-1.44-.7-3.92-2.49-6.42-6.43-8.57-17.85-4.99-25.35-14.28-1.06,.69-2.15,1.43-3.2,2.87-1.78-3.57-3.97-4.66-5.77-10.01-9.99,1.08-12.18,15.32-12.18,21.41v5.33c0,2.14-1.37,3.21-3.15,4.66-.71,1.76-4.79,1.04-5.15,7.12,2.86-.35,9.74-1.44,15.44,0-.71,3.56-1.73,7.14,2.54,7.14,1.79,0,1.82-1.08,2.88-2.87,4.99,2.15,16.78-3.9,16.78-11.75,2.15,.72,13.57,10.38,13.57,10.38h9.62c4.63,0,7.85-2.88,11.76-5.36-3.21-4.3-9.62-3.95-15.32-8.22Z"/>
      <path class="cls-1" d="M937.92,339.29c0-15.9-22.11-15.9-22.11,0,0,5.3,3.56,7.83,8.91,7.83,4.27,0,13.2-2.53,13.2-7.83Z"/>
      <path class="cls-1" d="M859.26,420.26c-.36,2.13-6.27,5.33-6.27,8.91v4.62c5.3-.71,13.84-7.84,17.06-12.12-4.31-1.78-3.67-1.78-10.79-1.42Z"/>
      <path class="cls-1" d="M896.19,248.38c6.05,0,9.27-3.57,13.19-3.57,3.93,0,6.06,2.49,10.7,2.49,3.21,0,5.36-2.49,6.43-5.71-6.43-3.22-14.63-11.04-24.26-11.04-7.49,0-9.97-2.86-17.82-2.86-2.86,0-6.07,1.78-6.07,5.35,0,3.92,3.92,5.7,7.13,7.49-2.48,6.05,3.57,7.85,10.7,7.85Z"/>
      <path class="cls-1" d="M887.98,440.95c3.56,0,4.29-5,6.42-7.87-3.57-4.27-11.76-3.91-11.76,2.5,0,0,4.63,5.37,5.34,5.37Z"/>
      <path class="cls-1" d="M953.25,338.58c-1.08-1.42-3.94-5.7-7.13-5.7-.73,0-4.65,2.51-4.65,3.58,0,2.12,2.14,2.84,4.65,2.84,3.56,0,2.49,.37,7.13-.73Z"/>
      <path class="cls-1" d="M903.33,312.2c-4.28,0-12.49,8.19-8.2,8.19s7.12-3.92,8.2-8.19Z"/>
      <path class="cls-1" d="M980.88,278.45c1.07-6.07-8.73-8.08-12.64-8.08h-8.92c-11.78,0-14.26-11.19-22.12-16.9-4.64-3.2-19.96-4.87-26.75-4.87-6.43,0-8.21,9.15-14.26,9.15-3.21,0-4.97-3.46-8.88-3.46-3.56,0-7.81,3.69-7.81,3.69,0,0,0-5.71,0-7.14,0-7.84-4.31-20.31-13.58-20.31-14.27,0-37.82,4.26-37.82,17.83,0,3.56,3.75,6.04,3.75,9.62,0,2.85-4.91,7.14-7.05,7.14-4.28,0-3.53-3.21-3.53-6.07,0,0-.69-3.93,.02-6.42-1.77,0-2.85-1.43-2.85-3.56,0-10.34,11.78-11.06,15.34-18.54-.35,0-11.75-3.58-11.75-3.58-12.13,0-21.4,6.08-28.54,13.19-1.43,1.43,.35,7.86-2.49,9.98-5.36,3.94-7.14,6.09-7.14,16.06,0,3.22,3.59,9.63,3.59,9.63,0,0,17.83,1.45,17.83,3.58v4.63c-5.3-.71-9.65-3.91-14.27-2.1,.71,4.98,7.84,9.65,9.61,9.65h17.11c2.14,5.3,7.83,8.18,10.7,8.18,16.04,0,43.15-.56,54.21,.52-.36,2.48-1.78,8.47,2.85,8.47,6.42,0,12.13-13.45,16.76-13.45,3.92,0,23.19,16.49,26.4,19.69-2.13,.36-8.57,1.1-8.57,4.67,0,.7,1.44,4.29,2.85,4.29,4.66,0,6.79-4.27,11.43-4.27,7.48,0,30.29,17.49,30.29,26.76,0,5-7.48,12.83-10.68,16.03-2.51,2.51-8.91-.7-8.91,5.37,0,2.84,4.63,7.1,6.41,8.19-4.27,2.85-12.85,5.68-16.05,5.68-3.22,0-8.91,0-15.34,0-4.98,0-14.25,5.39-14.25,8.94,0,4.99,11.41,9.63,15.32,9.63,4.29,0,6.44-5.53,10.71-5.53,3.21,0,2.5,2.42,6.07,2.42,3.21,0,5.36-2.91,7.14-5.39,10.33,6.05,16.05,12.79,27.8,17.8-6.07,11.42,15.33,11.05,23.89,16.02,8.92,5.35,15.7,3.21,26.03,8.19,1.07,.37,1.79,4.3,3.58,4.3,1.41,0,3.56-4.73,3.56-7.26,0-9.96-19.98-12.02-26.04-27.92h5.36c3.91,10.6,26.74,16.52,33.15,17.23,1.44-3.93,5.35-9.22,5.35-12.79,0-3.93-6.41-5.56-6.41-8.04-.38-1.42-.38-1.7,0-7h-6.07c-.73,0-3.22-.82-9.98-3.31-2.86-1.08-7.14-7.3-7.84-12.6h-5.41v-6.07c0,1.08,0,.72,5.3,0v-4.3c-5.3,.72-3.53,1.09-6.73-.7,.36,0,5.19-3.94,7.34-3.94,17.11,0,17.92,24.27,35.75,24.27,3.92,0,4.69-6.07,4.69-10,6.78,0,7.89-3.2,7.89-4.25,0-1.81,.36-.74,.01-4.66,4.62,0,10.71-1.42,10.71-6.06,0-5.72-2.87-8.2-9.64-8.2-1.77,0-4.64,0-6.41-1.78-2.85-6.79-4.63-1.79-12.48-1.79-5.35,0-7.12-6.06-7.86-12.47-7.48-.73-17.1-4.29-17.82-12.51-4.63,0-6.78-1.07-9.99-2.85,3.2-5.34,6.08-5.34,11.78-8.22-1.08-2.12-3.57-3.2-5.37-3.2-3.21,0-4.61,0-10.69-.69,2.86-4.31,7.48-3.2,12.49-4.28-2.13-4.99-5-7.84-9.99-7.84h-4.28v-7.51c-10.6-1.08-16.23-7.72-25.86-10.92Z"/>
      <path class="cls-1" d="M904.02,413.84c3.58,2.84,4.64,2.84,8.21,0-4.28-2.15-4.63-4.65-8.21,0Z"/>
      <path class="cls-1" d="M844.47,370.33c-.35,2.49,2.5,5.33,7.13,5.71-2.48-3.22-2.48-7.84-7.13-5.71Z"/>
      <path class="cls-1" d="M779.21,53.01h10.71c-4.28,0-6.41,2.98-9.97,6.56,.7,.36,4.62,3.09,6.41,3.09,6.77,0,7.13-6.29,14.27-6.29,2.84,0,3.92,.06,7.13,.78-9.27,2.85-18.17,1.82-22.11,11.09,2.85-.36,9.98,.02,16.77,.02-4.65,.38-7.14,2.14-9.63,3.92,2.5,3.23,12.47,6.56,19.61,6.56,3.21,0,5.35,.79,7.84-4.51h4.64c-2.14,5.3,7.14,8.08,14.26,8.08,2.85,0,4.29-3.08,7.14-3.08,3.56,0,5.7,3.04,12.47,3.04,11.42,0,19.62-2.73,26.75-8.03h5.35c-4.28,5.3-10.35,5.3-17.11,10.6h-17.83c-.71,0-2.5,1.88-2.5,3.32,0,2.14,11.41,9.13,13.21,10.91-10,1.1-13.21-9.3-22.12-12.17-7.12-2.15-14.97-.74-18.91-.74-1.77,0-3.55-.74-5.34-.02,.73,2.86,1.43,4.26,5.34,4.26-3.55,0-8.91-.69-8.91,2.87,0,6.42,24.25,6.42,24.25,17.82,0,9.99-13.35,6.8-22.27,9.64-5.35,1.76-8.06,5.68-13.36,11.75v.08h19.59c0,5.3,11.05,15.9,16.05,21.21h-6.42c-6.77-5.3-10.7-10.82-22.11-10.82-3.57,0-8.92-1.85-8.92,3.16,0,6.41,7.49,7.28,11.78,10.49-7.49,5.34-26.03-.11-26.03,14.17,0,1.05,1.06,2.79,3.56,2.79,1.77,0,3.2-1.82,4.28-3.61,12.5,3.94,22.11,7.86,33.87,7.86,5.35,0,7.49-2.84,10.7-2.84h26.76c7.13,0,3.56,4.61,11.76,4.61s28.53-6.38,28.53-12.42c0-3.2-4.27-2.79-5.34-2.79-2.49,0-3.57,0-8.92,0,0-10.6,14.98-7.55,14.98-18.97,0-2.13-1.78,3.06-2.5-7.54,2.86,0,2.5,0,17.84,0,6.06-5.3,8.57-11.06,16.05-14.63-2.15-4.99-6.06-4.86-10.34-7.01,6.78,.73,11.06-4.87,10.34-4.87h-9.98c5.72-5.3,14.62-6.02,22.47-8.51,5.69-1.78,13.53,2.15,18.53-1.42,10.69-7.82,18.9-22.25,33.18-26.9,12.84-4.28,32.81-9.35,41.01-17.55-8.94-.37-23.19,2.42-26.77-1.13,18.9-9.27,36.39-2.86,50.66-13.56,2.49-1.78,8.91-.74,8.91-5.35,0-6.43-18.91-4.66-23.18-8.94-2.15-2.12-2.15-5-6.05-6.04-2.51-.74-3.94-1.45-6.43-2.87l-28.52,8.21c2.85-.72,3.91,.55,6.41-1.96-7.13-7.13-37.82-4.1-46.36-4.1-3.57,0-5.71,0-10,0-3.19,0-5.33-4.46-10.68-4.46-5,0-6.44,5.07-11.43,5.07-5.34,0-7.12-3.69-13.55-3.69-1.78,0-3.55,3.08-4.27,3.08-18.55,0-22.47,0-41.01,0-3.57,0-6.42,0-8.2,3.55-4.64,3.92-1.08,.17-7.13,.17-10.34,0-14.63,7.23-17.83,15.79-3.2-1.07-17.12-7.98-23.9-7.98-7.48,0-2.85,7.32-14.26,7.32,0,1.42-1.43,2.35-2.84,2.35-.74,0-3.58,0-7.86,0-10.35,0-33.53,5.3-35.67,10.6h13.19Z"/>
      <path class="cls-1" d="M1475.69,295.79c-7.47-2.49-39.21-1.07-39.21-11.76,1.78-.37,7.85-1.43,7.85-4.64,0-2.85-3.57-3.92-3.57-8.94,1.77,1.08,3.57,0,5.33,0,14.62,0,11.07,17.83,27.82,17.83,3.91,0,9.08-.34,9.08-4.26,0-20.34-20.33-26.39-36.23-39.23v-5.37s2.34,.36,5.2,0c2.13,6.78,13.48,16.05,19.89,16.05,4.28,0,5.49-3.81,5.49-8.08,0-9.64-15.91-8.84-19.47-14.14h5.35c2.84,0,6.76,3.8,10.69,6.31,2.85-7.49,17.12-3.82,19.61-14.51-1.78-.71-3.55-3.35-3.55-5.83,6.78-.73,13.9-4.17,16.04-9.86-4.28-1.44-14.27-1.19-14.27-7.24,0-4.66,5.72-4.72,11.42-4.72-1.79-2.13,0-5.03,0-7.87,0-5.35-5.35-7.51-5.35-15.33-4.99,0-11.41,0-11.41-6.08,0-2.51,3.22-5.36,7.12-5.36,6.43,0,24.97,3.21,24.97-5.34,0-8.56-13.91-6.78-15.33-12.49,2.12,0,4.63-1.08,6.42-2.15-3.57-2.83-8.57-6.76-14.27-6.76-3.92,0-6.77,1.78-10.7,0,2.13-3.58,1.79-12.14,6.07-15.34,6.78-5.02,14.26-7.49,14.26-14.99,0-1.41,.34-1.41,0-5.33,6.77-1.8,16.05-3.23,16.05-8.95,0-3.55,2.49,.38,0-4.61,6.42-1.42,16.05-1.42,16.05-11.41-2.86,2.14-3.19,2.14-7.49,0,16.05,0,23.55-10.33,35.31-14.26,2.15-.72,8.92-3.94,8.92-8.21,0-4.64-16.76-13.83-21.38-13.83-3.58,0-6.08,3.3-7.15,3.3h-17.12c-5.69,5.3-6.77,4.26-13.2,6.76-1.41,.34-8.2-1.46-8.2-1.46,0,0-14.62,0-23.88,0-5.72,5.3-23.76,29.55-33.03,32.03,1.06-3.57,24.11-26.96,24.11-30.15,0-5.37-2.5-10.27-8.91-10.27-11.77,0-33.03,20.54-41.94,20.54-2.87,0,12.68-14.88,13.41-17.73-6.42-2.48-66.19,4.69-72.26,.05l78.32-4.24c9.63-3.59,33.88-1.77,35.67-14.27-8.93-2.13-21.4,.65-31.03-3.25-16.75-7.14-32.45-20.42-53.48-20.42h-51.74c-18.17,0-30.12,9.72-47.24,9.72-5.34,0-12.3-1.02-12.3-.28v6.47h-11.06c-7.85,0-13.55-3.58-22.1-3.58-11.78,0-20.7,1.92-30.33,6.58,1.79,2.48,4.65,2.55,7.14,5.06-3.2,.7-14.26-1.1-14.26,4.23,0,6.78,14.63,8.92,20.33,14.22h-16.06c-8.91-5.3-17.48-12.55-32.08-12.55-3.56,0-8.91,.37-8.91,4.64,0,2.88,1.78,2.61,2.85,7.91,0,0-3.58,0-5.36,0-7.12-5.3-13.19-2.22-17.12-8.99l-3.57,3.52c0,2.48,1.8,4.59,1.8,7.12-6.77,0-8.56-10.73-14.99-10.73-9.62,0-16.75,5.69-26.74,8.17-13.54,0-18.89,3.57-33.16,5.37-11.41,1.42-1.77,17.84-14.26,17.84-3.58,0-6.43-.72-9.27-2.86-7.14,7.12-23.19,15.69-35.3,19.62-1.79,.35-7.15,2.14-7.15,5.35,0,6.76,20.32,6.43,26.75,7.13,0,8.92-3.92,15.32-9.62,18.9-7.85,4.64-20.68-.73-30.31,2.49-6.78,2.15-10.71,6.09-17.14,8.21-7.82,2.5-20.3-1.44-20.3,9.6,0,5.72,34.21,15.3,35.65,15.3h30.3c-1.05,0-1.05,5.3-4.62,5.3h-20.33c-1.78,0-2.86,5.3-6.43,5.3-2.48,0-4.99,0-8.91,0-2.85,0-9.99,.46-10.7,5.43,6.77,2.5,4.63-.86,12.47-.86,4.28,0,8.57,3.52,14.27,5.63-1.41,3.21-3.91,3.37-7.13,5.5,4.28,5.37,15.7,8.45,23.19,8.45,2.84,0,2.49,1.02,4.63-1.11-1.08-.36-2.51-1.82-3.57-2.9,1.78-.71,3.2-1.41,7.12-1.41,4.29,0,7.5,4.98,10.71,4.98,4.63,0,6.77-2.51,11.4-2.51h10.7c39.95,0,67.73,26.74,73.03,57.43v5.34c10.6,.36,9.85,.7,9.85,6.07,0,8.18-7.39,7.47-7.39,15.33,0,5.34,3.44,6.05,9.86,6.05,4.64,0,5.83-6.05,9.03-6.05,11.78,0,15.04,16.75,26.09,20.32-.35,2.15,.03,5.36-3.53,5.36-8.57,0-13.92-5.36-21.39-5.36-3.23,0-2.85-1.4-6.4,0,1.41,9.99,27.47,11.77,38.51,15.34-3.22,9.98-9.63,13.55-11.78,24.25-5-2.11-5.76-1.77-11.06,.73v.71c-10.6,5.7-10.6,12.83-15.9,19.61v8.21c0-1.81,6.54-1.44,9.03,0-1.07,3.57-2.62,5.33-2.62,8.89,0,9.64,10.09,13.58,12.24,20.34,1.07,3.57,2.38,10.34,3.81,11.77,6.07,3.21,7.97-5.69,13.31,1.08-2.5,2.49-5.28,2.13-5.28,6.77,0,10.33,13.57,26.39,20.7,32.1,1.08,.72,.39,5.69,2.51,7.15,5.72,4.26,9.28,1.76,11.78,9.97,4.29-.35,10-4.65,14.99-4.65,8.91,0,8.2,16.07,17.12,16.07,2.13,0,2.84-2.14,7.12-2.51,.73,2.15,1.79,3.57,4.29,3.57,9.63,0,5.34-18.53,13.55-22.46-.71-3.93,0-13.2,0-19.63,0-10.34,16.76-6.41,16.76-18.53,0-3.93-4.28-5.72-4.28-8.22,0-1.77,1.43-2.84,2.5-4.29,0-1.06-.7-2.47-.7-3.57,0-11.76,21.38-8.54,28.87-16.02,3.23-3.21-1.34-6.78,9.26-8.95v8.64h1.1c7.47-5.3,19.6-4.32,26.72-11.45,5.36-5.33,5.72-12.85,12.5-18.18l8.92-9.24c0-2.84,3.56-8.84,7.14-8.84h16.76c13.54-5.3,23.89-2.04,36.72-6.32,10.34-3.22,13.92-11.9,25.68-15.81,6.42-2.13,9.99-1.19,15.33-5.47Z"/>
      <path class="cls-1" d="M1151.17,312.79h7.83c6.07,0,13.56-1.73,14.28-7.78-9.28-2.85-12.11-12.81-21.41-12.81-3.18,0-7.83,2.27-7.83,7.61,0,4.28,3.92,12.98,7.13,12.98Z"/>
      <path class="cls-1" d="M1512.05,190.85c-1.06,0-3.55,3.09-3.55,5.21,0,1.81,2.14,2.77,4.63,2.77,3.57,0,9.62,2.62,11.41-7.98h-12.5Z"/>
      <path class="cls-1" d="M1137.26,590.36c0-1.42-1.61-3.58-3.02-3.58-5.71,0-8.13,6.08-10.97,10.72-5.35,8.18-11.63,24.27-21.61,29.23,.36,1.08,.51,1.82,.51,1.82v2.11c0,.37-4.21,5.38-4.21,6.79,0,1.07,2.9,3.57,4.67,3.57,4.28,0,6.28-2.13,11.62-2.13,3.93,0,6.34,2.48,10.97,2.48,2.5,0,4.78-.73,7.26-1.76,1.79,3.56,6.5,1.45,10.06,1.45-1.08,2.16-3.87,.45-3.87,5.75h2.16c4.27,0,7.48-5.39,10.33-9.68,2.85,2.87,.7,9.63,3.57,9.63,1.06,0,1.79,.69,2.84,.69,0,1.44,.73,4.27,3.22,4.27,3.58,0,5.71-4.27,5.71-8.53,0-3.57-2.5-3.23-2.5-7.5-2.13,1.4-1.07,2.12-4.62,2.12,0-2.49-2.5-3.92-2.5-5.69,0-1.45,3.21-2.14,3.57-5.37-1.44,0-3.21,.38-3.92,1.08,0-5.34,.35-8.55,.35-11.77-1.78,1.08-5.25,1.08-9.19,0l-3.11,1.44v-2.49h-10.6v-2.51l2.71-1.76c-1.41-1.45-2.05-1.81-4.18-1.81-2.49,0-3.83,2.15-3.83,2.86v-3.2c0-6.43,8.59-10.34,8.59-18.19Z"/>
      <path class="cls-1" d="M3109.01,202.02c3.58,0,5.36-3.21,7.84-5.38,1.8,2.16,3.23,3.57,6.44,3.57,3.57,0,5.7-2.85,7.84-2.85,2.86,0,4.27-2.5,7.13-2.5,2.51,0,3.92,1.57,6.44,1.57,4.26,0,6.06-5.58,8.91-5.58h9.62s5.02-4.76,6.43-9.76c-7.48-2.13-28.53-8.62-34.95-8.62-4.29,0-6.06,4.78-6.06,10.12-9.61,0-10.34-11.15-21.41-11.15-7.48,0-16.02,6.19-16.02,14.36,0,8.58,8.53,16.21,17.81,16.21Z"/>
      <path class="cls-1" d="M879.07,572.56c.36,0,1.79,5.3,1.79,0,0,0-6.05-6.06-12.14-6.06,.35,.69,.35,1.77,0,2.49,2.15,2.15,7.14,3.58,10.35,3.58Z"/>
      <path class="cls-1" d="M415.82,617.94c5.71,3.58,18.19,12.94,26.39,12.94h2.56v-2.71c-5.3-9.27-17.51-17.83-32.86-22.81-2.49-.73-5.52-3.87-9.45-3.87-1.77,0-3.4,2.89-4.84,2.89h1.43s3.56-.04,5.35,.31c-.36,1.06-1.78,1.94-3.56,2.65,1.4,4.27,11.38,7.44,18.53,7.44-1.07,1.08-2.85,.67-3.56,3.16Z"/>
      <path class="cls-1" d="M362.33,569.69c0-1.8-1.79-2.51-1.79-4.27,0-3.58,.72-5.73,0-7.87-.71,1.79-2.13,4.63-4.64,4.63-2.13,0,1.91-3.89,1.91-4.26-3.21-.37-3.16-2.5-8.46-2.5v2.87c5.3,2.11,3.1,6.4,4.53,6.4,2.15,0,2.98,3.91,5.83,4.62,0,.73-1.36,1.8-1.36,3.94,0,2.85,2.17,6.77,5.03,6.77,3.57,0-2.84-5.34-2.84-6.77s1.8-2.14,1.8-3.56Z"/>
      <path class="cls-1" d="M131.99,506.9v4.28c5.3,1.79,4.18,2.15,7.39,4.66,5.35-4.3,8.52-6.79,13.82-10.01v-2.19h-4.13c-6.42,0-11.78,1.5-17.08,3.26Z"/>
      <path class="cls-1" d="M1853.73,755.99c-5.38-1.07-8.87,2.34-13.51,2.34-4.99,0-6.45-4.64-17.06-1.08v2.51c0,1.79,5.29,1.42,6.36,1.79,5.71,1.79,11.02,7.85,17.09,9.27,0,1.06,2.13,1.44,3.21,1.44s2.29-1.44,2.29-2.5c0-2.86-1.7-3.2-1.7-5.7,0-1.44,1.83-3.94,1.83-3.94l1.49-4.12Z"/>
      <path class="cls-1" d="M1793.44,716.25c1.08-2.15,2.13-9.98,3.21-14.26-1.08-.38-1.42-2.15-1.42-3.95-1.79,.37-3.21,3.57-5.71,3.57-.7,0-1.78,.73-2.5,.73,1.8,2.85,2.86,13.2,6.42,13.91Z"/>
      <path class="cls-1" d="M1788.09,730.88c0,2.49-1.78,4.26-2.14,7.14,0,2.84,0,7.47,3.57,7.47,2.85,0,9.35-5.02,9.35-9.99,0-5.73,.9-8.93-2.22-14.61-1.08,0-2.13-2.14-4.63-2.14-3.21,0-3.57,3.56-7.5,4.65,.36,2.84,3.56,4.64,3.56,7.49Z"/>
      <path class="cls-1" d="M1734.61,738.71c0-1.06-1.79-3.21-1.79-3.91-2.12,.33-3.56,1.41-5.72,2.49,.36,.36,3.22,3.21,4.65,3.21,1.07,0,2.85-.73,2.85-1.79Z"/>
      <path class="cls-1" d="M1809.26,537.09c0-3.57-1.55-6.94-1.55-6.94h-5.76s0,2.08,0,3.16c0,3.57,0,4.63,5.3,4.63v2.87c0-1.8,2-.87,2-3.71Z"/>
      <path class="cls-1" d="M1814.48,540.45l-.7-1.45c-.37,.37-1.44,1.08-1.78,1.8,.35,.34,2.49,2.12,4.98,2.12,7.85,0,4.99-12.49,11.06-14.27-1.79-6.04-2.14-9.26-9.27-9.26-2.48,0-6.77,9.26-6.77,10.7,0,2.13,3.92,4.97,7.48,5.68,0,1.8-2.5,4.29-4.99,4.66Z"/>
      <path class="cls-1" d="M1891.16,493.35c-6.4,.37-8.22,6.77-8.22,8.92,0,1.79-1.05,3.23,0,4.63,2.52-3.22,5.36-4.98,5.36-8.9,0-1.81,2.14-3.21,2.86-4.66Z"/>
      <path class="cls-1" d="M1920.56,491.6c1.41,0,3.33-2.52,3.33-3.58v-4.28c0-.36,5.23-2.84,5.58-4.65-1.42-.7-.8-1.43-2.57-3.57,0,0-2.54,1.81-2.54,3.57s1.75,2.87,2.84,4.29c-2.88,.36-6.2,2.48-9.04,2.85,0,2.14-.82,5.36,2.4,5.36Z"/>
      <path class="cls-1" d="M1964.25,790.44c-6.07-1.79-14.6-3.57-22.45-2.16,3.93,2.16,10.68,2.86,13.56,2.86,2.49,0,4.26,1.78,8.9-.7Z"/>
      <path class="cls-1" d="M2048.45,784.01c-6.1,1.05-15.35,4.63-20.71,7.12,0,.71,1.07,1.78,1.8,1.78,0,1.08,1.42,1.81,2.49,1.81,3.19,0,9.96-1.81,11.06-3.93,.35-1.09-.37-3.2,.73-3.57,2.11-1.08,3.9,.37,4.63-3.21Z"/>
      <path class="cls-1" d="M2243.13,1039.71c2.85,0,5.72-2.85,6.42-4.29-4.61,0-7.12,.72-10.34,1.78,.37,1.78,2.86,2.51,3.92,2.51Z"/>
      <path class="cls-1" d="M2188.95,307.93c-.71,0-4.64,6.77-4.64,8.2,0,3.56,1.71,4.27,5.99,4.27,6.07,0,9.28-3.56,14.58-6.05v-4.65c-5.3-.69-7.08-5.34-12.09-5.34-1.76,0-2.06,3.57-3.83,3.57Z"/>
      <path class="cls-1" d="M2291.28,292.94c0,4.29,7.84,8.93,12.5,8.93,0,0,4.64,.71,4.64-1.79,0-7.13-17.14-14.26-17.14-7.13Z"/>
      <path class="cls-1" d="M2421.56,235.5c-3.57-2.83-5.11-6.77-9.37-6.77-3.22,0-5.86,3.95-5.86,7.14v3.56c5.3,0,13.47-2.48,15.23-3.93Z"/>
      <path class="cls-1" d="M3145.39,233.26h10.69c-.36-5.3-7.47-14.74-16.76-14.74-8.2,0-12.83,4.77-17.1,10.45l1.77-1.41c6.78,2.5,14.98,5.7,21.4,5.7Z"/>
      <path class="cls-1" d="M3215.99,200.92c5.73,0,16.07-1.41,16.07-5.33,0-1.79-1.43-3.58-3.57-3.58-1.42,0-38.86-4.62-42.08-7.11l3.56,2.84c0,8.9,16.77,13.18,26.02,13.18Z"/>
      <path class="cls-1" d="M3131.12,213.4c0-4.98-9.61-5.71-9.61,0,0,3.24,.37,4.63,4.27,4.63,2.5,0,5.34-1.77,5.35-4.63Z"/>
      <path class="cls-1" d="M1073.43,619.25c-7.47-4.27-14.27-11.05-25.32-8.55,4.28,3.21,14.61,10.69,20.33,10.69,2.84,0,3.92-.35,4.99-2.14Z"/>
      <path class="cls-1" d="M1051.31,650.46c-.72,.35-1.42,.8-1.42,1.86,0,2.51,13.44,8.97,15.93,8.97,.72,0,4.52-2.09,4.52-4.22,0-.73,0,.32,0,.32h-11.19c-3.56,0-6.05-3.37-7.85-6.93Z"/>
      <path class="cls-1" d="M1091.56,660.97v-2.51c-5.3,0-2.47-2.12-2.47-5.32,0-1.45-1.59-2.15-2.3-3.57-3.21,1.06-8.11,9.98-8.11,12.12s1.81,3.91,5.37,3.91c3.92,0,7.51-2.12,7.51-4.63Z"/>
      <path class="cls-1" d="M15.34,464.91c-2.85,0-3.92-3.68-5.35,1.62H4.64c.72,0,2.86,0,4.27,5.3h11.78c-.71-5.3-1.07-6.92-5.36-6.92Z"/>
    </g>
  </g>
</svg>