<?xml version="1.0" encoding="UTF-8"?>
<svg id="Layer_2" class="cls-1" data-name="Layer 2" xmlns="http://www.w3.org/2000/svg" viewBox="0 0 1258.96 708.21">
  <defs>
    <style>
      .cls-1{
        fill: #007b93;
        opacity: .5;
      }


    </style>
  </defs>
  <g id="comp_Uzbekistan">
    <polygon class="cls-1" points="1255.02 334.08 1216.62 306.96 1206.63 304.89 1204.44 324.77 1190.85 338.2 1176.89 333.28 1162.97 321.23 1127.98 312.01 1113.28 303.91 1125.37 286.25 1149.77 251.58 1148.65 236.68 1135.89 235.4 1120.01 253.65 1106.71 258.73 1076.16 291.86 1065.49 311.09 1056.42 320.64 1040.72 347.25 1009.3 373.58 1001.38 368.33 966.01 352.48 939.66 349.13 916.67 353.43 881.45 370.38 865.28 369.03 832.69 287.76 777.72 281.17 774.86 181.55 747.57 189.09 728.41 146.34 688.11 119.38 560.01 119.53 443.82 130.89 378.47 95.27 330.08 78.93 205.97 0 0 35.22 63.29 371.12 99.07 368.33 131.83 373.25 139.73 356.83 126.19 344.78 120.56 319.15 137.45 288.63 161.16 286.54 173.62 269.26 191.68 260.23 210.74 269.26 219.53 264.36 206.37 247.08 242.12 250.09 295.29 273.4 340.48 297.9 345.94 314.23 404.48 342.87 450.65 364.22 463.01 356.83 478.63 358.88 511.38 380.53 524.95 421.95 540.83 432.34 546.45 450.58 564.13 480.17 591.5 491.27 643.19 521 694.84 555.5 753.6 579.06 806.5 611.58 848.17 617.6 857.19 626.87 869.56 624.84 898.98 643.23 897.79 661.54 902.31 693.1 924.2 687.86 941.36 694.86 950.94 707.63 961.49 708.21 974.25 697.47 987.82 698.44 994.63 706.53 1000.28 661.87 1016.85 627.21 1023.85 619.12 1021.76 599.77 1005.91 593.73 997.65 573.93 1004.81 559.63 1000.86 543.98 978.78 544.42 965.45 550.98 945.06 524.58 944.52 502.77 960.38 491.52 995.36 496.01 1009.3 492.58 1011.53 476.2 1041.66 466.59 1037.01 455.49 1030.02 449.85 1063.97 442.73 1090.3 432.49 1090.69 418.22 1066.58 407.69 1067.71 390.93 1087.27 384.11 1108.36 370.54 1124.14 371.51 1148.65 348.74 1165.79 364.52 1171.64 374.74 1210.04 368.87 1237.19 370.54 1258.96 348.19 1255.02 334.08"/>
  </g>
</svg>